<?xml version="1.0" encoding="iso-8859-1"?>
<!-- Uploaded to: SVG Repo, www.svgrepo.com, Generator: SVG Repo Mixer Tools -->
<svg height="800px" width="800px" version="1.1" id="Layer_1" xmlns="http://www.w3.org/2000/svg" xmlns:xlink="http://www.w3.org/1999/xlink" 
	 viewBox="0 0 503.767 503.767" xml:space="preserve">
<g transform="translate(2 1)">
	<g>
		<polygon style="fill:#FDCC00;" points="107.115,326.425 392.492,326.425 392.492,292.851 107.115,292.851 		"/>
		<path style="fill:#FDCC00;" d="M382.42,359.998H117.187c-5.875,0-10.072-4.197-10.072-10.072v-23.502h285.377v23.502
			C392.492,355.802,388.295,359.998,382.42,359.998"/>
	</g>
	<path style="fill:#FFE100;" d="M392.492,292.851H107.115v-141.01c0-5.875,4.197-10.072,10.072-10.072H381.58
		c5.875,0,10.072,4.197,10.072,10.072v141.01H392.492z"/>
	<g>
		<path style="fill:#00DA6C;" d="M207.836,217.31c0-9.233,3.357-18.466,8.393-25.18h-75.541v50.361h75.541
			C211.193,235.775,207.836,226.543,207.836,217.31"/>
		<path style="fill:#00DA6C;" d="M283.377,192.13c5.036,6.715,8.393,15.948,8.393,25.18s-3.357,18.466-8.393,25.18h75.541V192.13
			H283.377z"/>
	</g>
	<path style="fill:#63D3FD;" d="M291.77,217.31c0,23.502-18.466,41.967-41.967,41.967s-41.967-18.466-41.967-41.967
		s18.466-41.967,41.967-41.967S291.77,193.808,291.77,217.31"/>
	<g>
		<path style="fill:#FFE100;" d="M493.213,195.487c-3.357,0-6.715-2.518-8.393-5.875C457.121,87.212,363.954,15.867,258.197,15.867
			c-60.433,0-118.348,22.662-161.993,64.63c-3.357,3.357-8.393,3.357-11.751,0c-3.357-3.357-3.357-8.393,0-11.751
			C131.456,23.421,193.567-0.92,258.197-0.92c113.311,0,213.193,76.38,243.41,186.334c0.839,4.197-1.679,9.233-5.875,10.072
			C494.892,195.487,494.052,195.487,493.213,195.487z"/>
		<path style="fill:#FFE100;" d="M157.475,91.408H90.328c-5.036,0-8.393-3.357-8.393-8.393V15.867c0-5.036,3.357-8.393,8.393-8.393
			c5.036,0,8.393,3.357,8.393,8.393v58.754h58.754c5.036,0,8.393,3.357,8.393,8.393C165.869,88.051,162.511,91.408,157.475,91.408z"
			/>
		<path style="fill:#FFE100;" d="M248.964,502.687c-4.197,0-8.393-4.197-8.393-8.393l0,0c0-4.197,4.197-8.393,8.393-8.393l0,0
			c5.036,0,8.393,4.197,8.393,8.393l0,0C257.357,498.49,253.161,502.687,248.964,502.687L248.964,502.687L248.964,502.687z
			 M265.751,494.293c0-4.197,3.357-8.393,7.554-9.233l0,0c4.197,0,8.393,3.357,9.233,7.554l0,0c0,4.197-3.357,8.393-7.554,9.233l0,0
			l0,0l0,0c0,0,0,0-0.839,0l0,0C269.948,501.848,265.751,498.49,265.751,494.293z M222.944,500.169
			c-4.197-0.839-7.554-5.036-7.554-9.233l0,0c0.839-4.197,5.036-7.554,9.233-6.715l0,0c4.197,0.839,7.554,5.036,6.715,9.233l0,0
			c-0.839,4.197-4.197,7.554-8.393,7.554l0,0C223.784,500.169,222.944,500.169,222.944,500.169z M290.931,492.615
			c-0.839-4.197,2.518-9.233,6.715-10.072l0,0c4.197-0.839,9.233,2.518,10.072,6.715l0,0c0.839,4.197-2.518,9.233-6.715,9.233l0,0
			c-0.839,0-0.839,0-1.679,0l0,0C295.128,499.33,291.77,495.972,290.931,492.615z M196.925,495.133L196.925,495.133L196.925,495.133
			c-4.197-0.839-7.554-5.875-5.875-10.072l0,0c0.839-4.197,5.875-7.554,10.072-5.875l0,0c4.197,0.839,7.554,5.875,5.875,10.072l0,0
			c-0.839,4.197-4.197,6.715-8.393,6.715l0,0C198.603,495.133,197.764,495.133,196.925,495.133z M315.272,487.579
			c-1.679-4.197,1.679-9.233,5.875-10.072l0,0c4.197-1.679,9.233,1.679,10.072,5.875l0,0c1.679,4.197-1.679,9.233-5.875,10.072l0,0
			c-0.839,0-1.679,0-2.518,0l0,0C320.308,493.454,316.951,490.936,315.272,487.579z M172.584,487.579
			c-4.197-1.679-6.715-6.715-5.036-10.911l0,0c1.679-4.197,6.715-6.715,10.911-5.036l0,0c4.197,1.679,6.715,6.715,5.036,10.911l0,0
			c-0.839,3.357-4.197,5.875-7.554,5.875l0,0C174.262,488.418,173.423,487.579,172.584,487.579z M339.613,480.025
			c-1.679-4.197,0-9.233,5.036-10.911l0,0c4.197-1.679,9.233,0,10.911,5.036l0,0c1.679,4.197,0,9.233-5.036,10.911l0,0
			c-0.839,0.839-1.679,0.839-3.357,0.839l0,0C344.649,485.9,341.292,483.382,339.613,480.025z M148.243,477.507L148.243,477.507
			L148.243,477.507c-4.197-1.679-5.875-6.715-4.197-10.911l0,0c1.679-4.197,6.715-5.875,10.911-4.197l0,0
			c4.197,1.679,5.875,6.715,4.197,10.911l0,0c-1.679,2.518-4.197,5.036-7.554,5.036l0,0
			C150.761,478.346,149.082,478.346,148.243,477.507z M363.115,470.792c-2.518-4.197-0.839-9.233,3.357-10.911l0,0
			c4.197-2.518,9.233-0.839,10.911,3.357l0,0c2.518,4.197,0.839,9.233-3.357,10.911l0,0c-0.839,0.839-2.518,0.839-4.197,0.839l0,0
			C367.311,474.989,364.793,473.31,363.115,470.792z M125.58,464.916L125.58,464.916L125.58,464.916
			c-4.197-2.518-5.036-7.554-2.518-11.751l0,0c2.518-4.197,7.554-5.036,11.751-2.518l0,0c4.197,2.518,5.036,7.554,2.518,11.751l0,0
			c-1.679,2.518-4.197,4.197-7.554,4.197l0,0C128.098,465.756,127.259,465.756,125.58,464.916z M384.938,459.041
			c-2.518-4.197-1.679-9.233,2.518-11.751l0,0c4.197-2.518,9.233-1.679,11.751,2.518l0,0c2.518,4.197,1.679,9.233-2.518,11.751l0,0
			l0,0l0,0c-1.679,0.839-3.357,1.679-5.036,1.679l0,0C389.134,462.398,386.616,460.72,384.938,459.041z M103.757,449.808
			c-3.357-2.518-4.197-8.393-1.679-11.751l0,0c2.518-3.357,8.393-4.197,11.751-1.679l0,0c3.357,2.518,4.197,8.393,1.679,11.751l0,0
			c-1.679,2.518-4.197,3.357-6.715,3.357l0,0C107.115,451.487,105.436,451.487,103.757,449.808z M405.921,444.772
			c-2.518-3.357-2.518-9.233,0.839-11.751l0,0c3.357-2.518,9.233-2.518,11.751,0.839l0,0c3.357,3.357,2.518,9.233-0.839,11.751l0,0
			l0,0l0,0c-1.679,0.839-3.357,1.679-5.036,1.679l0,0C410.118,447.29,407.6,446.451,405.921,444.772z M84.452,433.021
			c-3.357-3.357-3.357-8.393,0-11.751l0,0c3.357-3.357,8.393-3.357,11.751,0l0,0c3.357,3.357,3.357,8.393,0,11.751l0,0
			c-1.679,1.679-3.357,2.518-5.875,2.518l0,0C87.81,435.539,86.131,434.7,84.452,433.021z M425.226,427.985
			c-3.357-3.357-3.357-8.393,0-11.751l0,0c3.357-3.357,8.393-3.357,11.751,0l0,0c3.357,3.357,3.357,8.393,0,11.751l0,0
			c-1.679,1.679-4.197,2.518-5.875,2.518l0,0C428.584,430.503,426.905,429.664,425.226,427.985z M66.826,413.716
			c-3.357-3.357-2.518-8.393,0.839-11.751l0,0c3.357-3.357,8.393-2.518,11.751,0.839l0,0c2.518,4.197,2.518,9.233-0.839,11.751l0,0
			c-1.679,1.679-3.357,1.679-5.036,1.679l0,0C70.184,417.074,68.505,416.234,66.826,413.716z M442.852,410.359
			c-3.357-3.357-4.197-8.393-1.679-11.751l0,0c2.518-3.357,8.393-4.197,11.751-1.679l0,0c3.357,2.518,4.197,8.393,0.839,11.751l0,0
			c-1.679,2.518-4.197,3.357-6.715,3.357l0,0C446.21,412.038,443.692,411.198,442.852,410.359z M50.879,393.572
			c-2.518-3.357-1.679-9.233,2.518-11.751l0,0c3.357-2.518,9.233-1.679,11.751,2.518l0,0c2.518,4.197,1.679,9.233-2.518,11.751l0,0
			c-1.679,0.839-3.357,1.679-5.036,1.679l0,0C55.075,396.93,52.557,396.09,50.879,393.572z M457.961,390.215
			c-4.197-2.518-5.036-7.554-2.518-11.751l0,0c2.518-4.197,7.554-5.036,11.751-2.518l0,0c4.197,2.518,5.036,7.554,2.518,11.751l0,0
			l0,0l0,0c-1.679,2.518-4.197,4.197-6.715,4.197l0,0C460.479,391.893,459.639,391.054,457.961,390.215z M37.449,370.91
			c-2.518-3.357-0.839-8.393,2.518-10.911l0,0c4.197-2.518,9.233-0.839,11.751,3.357l0,0c2.518,4.197,0.839,9.233-3.357,11.751l0,0
			c-0.839,0.839-2.518,0.839-4.197,0.839l0,0C41.646,375.946,38.289,374.267,37.449,370.91z M471.39,368.392
			c-4.197-2.518-5.875-7.554-3.357-11.751l0,0c2.518-4.197,7.554-5.875,10.911-3.357l0,0c4.197,2.518,5.875,6.715,3.357,10.911l0,0
			c-1.679,3.357-4.197,4.197-7.554,4.197l0,0C473.908,369.231,472.229,369.231,471.39,368.392z M25.698,347.408L25.698,347.408
			L25.698,347.408c-1.679-4.197,0-9.233,4.197-10.911l0,0c4.197-1.679,9.233,0,10.911,4.197l0,0c1.679,4.197,0,9.233-4.197,10.911
			l0,0c-0.839,0.839-2.518,0.839-3.357,0.839l0,0C29.895,353.284,27.377,350.766,25.698,347.408z M482.302,345.73
			c-4.197-1.679-6.715-6.715-5.036-10.911l0,0c1.679-4.197,6.715-6.715,10.911-5.036l0,0c4.197,1.679,6.715,6.715,5.036,10.911l0,0
			c-1.679,3.357-4.197,5.036-7.554,5.036l0,0C483.98,346.569,483.141,346.569,482.302,345.73z M17.305,323.067
			c-1.679-4.197,0.839-9.233,5.875-10.911l0,0c4.197-0.839,8.393,1.679,10.072,5.875l0,0c1.679,4.197-0.839,9.233-5.875,10.911l0,0
			c-0.839,0-1.679,0-2.518,0l0,0C21.502,328.943,18.144,327.264,17.305,323.067z M490.695,322.228
			c-4.197-1.679-7.554-5.875-5.875-10.072l0,0c0.839-4.197,5.875-6.715,10.072-5.875l0,0c4.197,0.839,6.715,5.875,5.875,10.072l0,0
			c-0.839,4.197-4.197,5.875-8.393,5.875l0,0C492.374,323.067,491.534,322.228,490.695,322.228z M10.59,297.887L10.59,297.887
			L10.59,297.887c-0.839-5.036,2.518-9.233,6.715-10.072l0,0c4.197-0.839,9.233,2.518,10.072,6.715l0,0
			c0.839,4.197-2.518,9.233-6.715,10.072l0,0c-0.839,0-0.839,0-1.679,0l0,0C14.787,304.602,11.43,302.084,10.59,297.887z
			 M7.233,271.867c0-4.197,3.357-8.393,7.554-9.233l0,0c4.197,0,8.393,3.357,9.233,7.554l0,0c0.839,4.197-3.357,8.393-7.554,9.233
			l0,0h-0.839l0,0C11.43,280.261,7.233,276.903,7.233,271.867z"/>
	</g>
	<path d="M400.885,301.244H98.721V151.841c0-10.072,8.393-18.466,18.466-18.466H381.58c10.072,0,18.466,8.393,18.466,18.466v149.403
		H400.885z M115.508,284.457h268.59V151.841c0-0.839-0.839-1.679-1.679-1.679H117.187c-0.839,0-1.679,0.839-1.679,1.679V284.457z"/>
	<path d="M400.885,334.818H98.721v-50.361h302.164V334.818z M115.508,318.031h268.59v-16.787h-268.59V318.031z"/>
	<path d="M382.42,368.392H117.187c-10.072,0-18.466-8.393-18.466-18.466v-31.895h302.164v31.895
		C400.885,359.998,392.492,368.392,382.42,368.392z M115.508,334.818v15.108c0,0.839,0.839,1.679,1.679,1.679H381.58
		c0.839,0,1.679-0.839,1.679-1.679v-15.108H115.508z"/>
	<path d="M493.213,259.277c-5.036,0-8.393-3.357-8.393-8.393c0-129.259-105.757-235.016-235.016-235.016
		c-60.433,0-118.348,22.662-161.993,64.63c-3.357,3.357-8.393,3.357-11.751,0s-3.357-8.393,0-11.751
		C123.062,23.421,185.174-0.92,249.803-0.92c138.492,0,251.803,113.311,251.803,251.803
		C501.607,255.92,498.249,259.277,493.213,259.277z"/>
	<path d="M149.082,83.015H73.541V7.474c0-5.036,3.357-8.393,8.393-8.393c5.036,0,8.393,3.357,8.393,8.393v58.754h58.754
		c5.036,0,8.393,3.357,8.393,8.393C157.475,79.657,154.118,83.015,149.082,83.015z"/>
	<path d="M246.446,494.293c0-4.197,3.357-8.393,8.393-8.393l0,0c4.197,0,8.393,3.357,8.393,8.393l0,0
		c0,5.036-3.357,8.393-8.393,8.393l0,0l0,0l0,0C249.803,502.687,246.446,499.33,246.446,494.293z M228.82,501.848L228.82,501.848
		L228.82,501.848c-5.036,0-8.393-4.197-7.554-9.233l0,0c0-4.197,4.197-8.393,9.233-7.554l0,0c4.197,0.839,8.393,4.197,7.554,9.233
		l0,0C237.213,498.49,233.856,501.848,228.82,501.848L228.82,501.848L228.82,501.848z M271.626,493.454
		c-0.839-5.036,2.518-9.233,7.554-9.233l0,0c4.197-0.839,8.393,2.518,9.233,7.554l0,0c0.839,4.197-2.518,8.393-7.554,9.233l0,0l0,0
		l0,0h-0.839l0,0C274.984,501.008,271.626,497.651,271.626,493.454z M202.8,498.49c-4.197-0.839-7.554-5.036-6.715-10.072l0,0
		c0.839-4.197,5.036-7.554,10.072-6.715l0,0c4.197,0.839,7.554,5.036,6.715,10.072l0,0c-0.839,4.197-4.197,6.715-8.393,6.715l0,0
		C203.639,498.49,203.639,498.49,202.8,498.49z M295.967,490.097c-0.839-4.197,1.679-9.233,6.715-10.072l0,0
		c4.197-0.839,9.233,1.679,10.072,6.715l0,0c0.839,4.197-1.679,9.233-6.715,10.072l0,0c-0.839,0-1.679,0-1.679,0l0,0
		C300.164,496.812,296.807,494.293,295.967,490.097z M177.62,491.775c-4.197-1.679-6.715-5.875-5.875-10.072l0,0
		c1.679-4.197,5.875-6.715,10.911-5.875l0,0c4.197,0.839,6.715,5.875,5.875,10.072l0,0c-0.839,3.357-4.197,5.875-8.393,5.875l0,0
		C179.298,492.615,178.459,492.615,177.62,491.775z M320.308,484.221c-1.679-4.197,0.839-9.233,5.036-10.911l0,0
		c4.197-1.679,9.233,0.839,10.911,5.036l0,0c1.679,4.197-0.839,9.233-5.036,10.911l0,0c-0.839,0-1.679,0-2.518,0l0,0
		C325.344,489.257,321.987,487.579,320.308,484.221z M153.279,483.382c-4.197-1.679-6.715-6.715-4.197-10.911l0,0
		c1.679-4.197,6.715-6.715,10.911-4.197l0,0c4.197,1.679,6.715,6.715,4.197,10.911l0,0c-1.679,3.357-4.197,5.036-7.554,5.036l0,0
		C154.957,484.221,154.118,484.221,153.279,483.382z M344.649,474.989c-1.679-4.197,0-9.233,4.197-10.911l0,0
		c4.197-1.679,9.233,0,10.911,4.197l0,0c1.679,4.197,0,9.233-4.197,10.911l0,0c-0.839,0.839-2.518,0.839-3.357,0.839l0,0
		C348.846,480.025,345.489,478.346,344.649,474.989z M129.777,471.631c-4.197-2.518-5.875-7.554-3.357-10.911l0,0
		c2.518-4.197,7.554-5.875,11.751-3.357l0,0c4.197,2.518,5.875,7.554,3.357,11.751l0,0c-1.679,2.518-4.197,4.197-7.554,4.197l0,0
		C132.295,473.31,130.616,472.471,129.777,471.631z M367.311,464.077c-2.518-4.197-0.839-9.233,2.518-11.751l0,0
		c4.197-2.518,9.233-0.839,11.751,3.357l0,0c2.518,4.197,0.839,9.233-2.518,11.751l0,0l0,0l0,0
		c-1.679,0.839-2.518,0.839-4.197,0.839l0,0C371.508,468.274,368.151,467.434,367.311,464.077z M107.115,458.202L107.115,458.202
		L107.115,458.202c-4.197-2.518-5.036-7.554-2.518-11.751l0,0c2.518-4.197,7.554-5.036,11.751-2.518l0,0
		c3.357,2.518,5.036,7.554,2.518,11.751l0,0c-1.679,2.518-4.197,3.357-6.715,3.357l0,0
		C110.472,459.88,108.793,459.041,107.115,458.202z M388.295,450.648c-2.518-3.357-1.679-9.233,1.679-11.751l0,0
		c3.357-2.518,9.233-1.679,11.751,1.679l0,0c2.518,3.357,1.679,9.233-1.679,11.751l0,0l0,0l0,0
		c-1.679,0.839-3.357,1.679-5.036,1.679l0,0C392.492,454.844,389.974,453.166,388.295,450.648z M86.97,442.254L86.97,442.254
		L86.97,442.254c-3.357-3.357-4.197-8.393-0.839-11.751l0,0c3.357-3.357,8.393-4.197,11.751-0.839l0,0
		c3.357,3.357,4.197,8.393,0.839,11.751l0,0c-1.679,1.679-4.197,3.357-6.715,3.357l0,0C90.328,444.772,88.649,443.933,86.97,442.254
		z M408.439,435.539c-3.357-3.357-2.518-8.393,0.839-11.751l0,0c3.357-3.357,8.393-2.518,11.751,0.839l0,0
		c3.357,3.357,3.357,8.393-0.839,11.751l0,0c-1.679,1.679-3.357,2.518-5.875,2.518l0,0
		C411.797,438.057,410.118,437.218,408.439,435.539z M67.666,424.628L67.666,424.628L67.666,424.628
		c-3.357-3.357-3.357-8.393,0-11.751l0,0c3.357-3.357,8.393-3.357,11.751,0l0,0c3.357,3.357,3.357,8.393,0,11.751l0,0
		c-1.679,1.679-3.357,2.518-5.875,2.518l0,0C71.862,427.146,69.344,426.307,67.666,424.628z M426.066,418.753
		c-3.357-3.357-4.197-8.393-0.839-11.751l0,0c3.357-3.357,8.393-4.197,11.751-0.839l0,0c3.357,3.357,4.197,8.393,0.839,11.751l0,0
		c-1.679,1.679-4.197,2.518-6.715,2.518l0,0C430.262,420.431,427.744,419.592,426.066,418.753z M50.879,405.323
		c-2.518-4.197-2.518-9.233,1.679-11.751l0,0c3.357-2.518,9.233-2.518,11.751,1.679l0,0c2.518,3.357,2.518,9.233-1.679,11.751l0,0
		c-1.679,0.839-3.357,1.679-5.036,1.679l0,0C55.075,408.68,52.557,407.002,50.879,405.323z M442.852,399.448
		c-4.197-2.518-4.197-8.393-1.679-11.751l0,0c2.518-3.357,8.393-4.197,11.751-1.679l0,0c3.357,2.518,4.197,8.393,1.679,11.751l0,0
		l0,0l0,0c-1.679,2.518-4.197,3.357-6.715,3.357l0,0C446.21,401.126,444.531,400.287,442.852,399.448z M35.77,383.5L35.77,383.5
		L35.77,383.5c-2.518-4.197-1.679-9.233,2.518-11.751l0,0c4.197-2.518,9.233-0.839,11.751,2.518l0,0
		c2.518,4.197,0.839,9.233-2.518,11.751l0,0c-1.679,0.839-3.357,1.679-4.197,1.679l0,0C39.967,387.697,37.449,386.018,35.77,383.5z
		 M457.121,378.464c-4.197-2.518-5.875-7.554-3.357-11.751l0,0c2.518-4.197,7.554-5.875,11.751-3.357l0,0
		c4.197,2.518,5.036,7.554,3.357,11.751l0,0c-1.679,2.518-4.197,4.197-7.554,4.197l0,0
		C459.639,379.303,458.8,379.303,457.121,378.464z M23.18,360.838c-1.679-4.197,0-9.233,4.197-10.911l0,0
		c4.197-1.679,9.233,0,10.911,4.197l0,0c1.679,4.197,0,9.233-4.197,10.911l0,0c-0.839,0.839-2.518,0.839-3.357,0.839l0,0
		C27.377,365.874,24.859,364.195,23.18,360.838z M468.872,356.641c-4.197-1.679-5.875-6.715-4.197-10.911l0,0
		c1.679-4.197,6.715-5.875,10.911-4.197l0,0c4.197,1.679,5.875,6.715,4.197,10.911l0,0c-1.679,3.357-4.197,5.036-7.554,5.036l0,0
		C471.39,357.48,470.551,356.641,468.872,356.641z M13.108,337.336L13.108,337.336L13.108,337.336
		c-1.679-4.197,0.839-9.233,5.036-10.911l0,0c4.197-1.679,9.233,0.839,10.911,5.036l0,0c1.679,4.197-0.839,9.233-5.036,10.911l0,0
		c-0.839,0-1.679,0.839-3.357,0.839l0,0C17.305,342.372,13.948,340.694,13.108,337.336z M478.944,333.139
		c-4.197-1.679-6.715-5.875-5.036-10.911l0,0c1.679-4.197,5.875-6.715,10.911-5.875l0,0c4.197,1.679,6.715,5.875,5.036,10.911l0,0
		c-0.839,3.357-4.197,5.875-7.554,5.875l0,0C480.623,333.139,479.784,333.139,478.944,333.139z M5.554,312.156
		c-0.839-4.197,1.679-9.233,5.875-10.072l0,0c4.197-0.839,9.233,1.679,10.072,5.875l0,0c1.679,4.197-1.679,9.233-5.875,10.072l0,0
		c-0.839,0-1.679,0-2.518,0l0,0C9.751,318.031,6.393,315.513,5.554,312.156z M486.498,308.798
		c-4.197-0.839-7.554-5.036-6.715-10.072l0,0c0.839-4.197,5.036-7.554,10.072-6.715l0,0c4.197,0.839,7.554,5.036,6.715,10.072l0,0
		c-0.839,4.197-4.197,6.715-8.393,6.715l0,0C487.338,309.638,487.338,309.638,486.498,308.798z M0.518,286.136
		c-0.839-5.036,2.518-9.233,7.554-9.233l0,0c4.197-0.839,8.393,2.518,9.233,7.554l0,0c0.839,4.197-2.518,8.393-7.554,9.233l0,0
		H8.911l0,0C4.715,293.69,1.357,290.333,0.518,286.136z M490.695,284.457c-5.036-0.839-8.393-5.036-7.554-9.233l0,0
		c0.839-4.197,4.197-8.393,9.233-7.554l0,0c4.197,0,7.554,4.197,7.554,9.233l0,0l0,0l0,0c0,4.197-4.197,7.554-8.393,7.554l0,0
		C491.534,284.457,491.534,284.457,490.695,284.457z M-2,260.956c0-5.036,3.357-8.393,8.393-8.393l0,0
		c5.036,0,8.393,3.357,8.393,8.393l0,0c0,4.197-3.357,8.393-8.393,8.393l0,0l0,0l0,0C2.197,268.51-2,265.153-2,260.956z
		 M484.82,250.884c0-5.036,4.197-8.393,8.393-8.393l0,0c4.197,0,8.393,3.357,8.393,8.393l0,0l0,0l0,0
		c0,4.197-4.197,8.393-8.393,8.393l0,0C489.016,259.277,484.82,255.08,484.82,250.884z"/>
	<path d="M249.803,267.671c-27.698,0-50.361-22.662-50.361-50.361s22.662-50.361,50.361-50.361s50.361,22.662,50.361,50.361
		S277.502,267.671,249.803,267.671z M249.803,183.736c-18.466,0-33.574,15.108-33.574,33.574s15.108,33.574,33.574,33.574
		s33.574-15.108,33.574-33.574S268.269,183.736,249.803,183.736z"/>
	<path d="M233.016,250.884H132.295v-67.148h100.721l-10.072,13.43c-4.197,5.875-6.715,12.59-6.715,20.144s2.518,14.269,6.715,20.144
		L233.016,250.884z M149.082,234.097H202.8c-1.679-5.036-3.357-10.911-3.357-16.787s0.839-11.751,3.357-16.787h-53.718V234.097z"/>
	<path d="M367.311,250.884H266.59l10.072-13.43c4.197-5.875,6.715-12.59,6.715-20.144s-2.518-14.269-6.715-20.144l-10.072-13.43
		h100.721V250.884z M296.807,234.097h53.718v-33.574h-52.879c1.679,5.036,2.518,10.911,2.518,16.787
		S299.325,229.061,296.807,234.097z"/>
</g>
</svg>