<?xml version="1.0" encoding="utf-8"?>
<!-- Uploaded to: SVG Repo, www.svgrepo.com, Generator: SVG Repo Mixer Tools -->
<svg width="800px" height="800px" viewBox="0 0 1024 1024" class="icon"  version="1.1" xmlns="http://www.w3.org/2000/svg"><path d="M234.666667 725.333333h554.666666v192H234.666667zM320 512h384v192H320zM704 469.333333H320c0-85.333333 85.973333-170.666667 192-170.666666s192 85.333333 192 170.666666zM469.333333 192h85.333334v106.666667h-85.333334z" fill="#C5CAE9" /><path d="M277.333333 746.666667h42.666667v149.333333h-42.666667zM362.666667 746.666667h42.666666v149.333333h-42.666666zM448 746.666667h42.666667v149.333333h-42.666667zM533.333333 746.666667h42.666667v149.333333h-42.666667zM618.666667 746.666667h42.666666v149.333333h-42.666666zM362.666667 533.333333h42.666666v149.333334h-42.666666zM448 533.333333h42.666667v149.333334h-42.666667zM533.333333 533.333333h42.666667v149.333334h-42.666667zM618.666667 533.333333h42.666666v149.333334h-42.666666zM704 746.666667h42.666667v149.333333h-42.666667z" fill="#5C6BC0" /><path d="M810.666667 714.666667a32 32 0 0 1-32 32h-533.333334a32 32 0 0 1 0-64h533.333334a32 32 0 0 1 32 32zM810.666667 928a32 32 0 0 1-32 32h-533.333334a32 32 0 0 1 0-64h533.333334a32 32 0 0 1 32 32zM746.666667 501.333333a32 32 0 0 1-32 32h-405.333334a32 32 0 0 1 0-64h405.333334a32 32 0 0 1 32 32zM576 298.666667a21.333333 21.333333 0 0 1-21.333333 21.333333h-85.333334a21.333333 21.333333 0 1 1 0-42.666667h85.333334a21.333333 21.333333 0 0 1 21.333333 21.333334z" fill="#9FA8DA" /><path d="M554.666667 192.021333h-85.333334a42.666667 42.666667 0 0 1 85.333334 0z" fill="#455A64" /><path d="M533.333333 170.666667a21.333333 21.333333 0 1 1-42.666666 0V85.333333a21.333333 21.333333 0 1 1 42.666666 0v85.333334z" fill="#455A64" /></svg>