<?xml version="1.0" encoding="iso-8859-1"?>
<!-- Generator: Adobe Illustrator 19.0.0, SVG Export Plug-In . SVG Version: 6.00 Build 0)  -->
<svg version="1.1" id="Layer_1" xmlns="http://www.w3.org/2000/svg" xmlns:xlink="http://www.w3.org/1999/xlink" x="0px" y="0px"
	 viewBox="0 0 512 512" style="enable-background:new 0 0 512 512;" xml:space="preserve">
<path style="fill:#7AB6DE;" d="M372.671,201.935v211.151c0,50.122-64.272,90.744-116.671,90.744s-116.671-40.622-116.671-90.744
	V201.935H372.671z"/>
<path style="fill:#4693BD;" d="M388.837,201.935v211.151c0,50.122-59.468,90.744-132.837,90.744
	c52.398,0,94.883-40.622,94.883-90.744V201.935H388.837z"/>
<path style="fill:#94C8EF;" d="M161.117,413.086c0,50.122,42.485,90.744,94.883,90.744c-73.369,0-132.837-40.622-132.837-90.744
	V201.935h37.953V413.086z"/>
<ellipse style="fill:#ADD9FF;" cx="256" cy="201.935" rx="132.837" ry="90.744"/>
<path style="fill:#4693BD;" d="M316.136,210.107H195.864c-4.513,0-8.17-3.658-8.17-8.17c0-4.512,3.657-8.17,8.17-8.17h120.272
	c4.513,0,8.17,3.658,8.17,8.17S320.649,210.107,316.136,210.107z"/>
<path style="fill:#94C8EF;" d="M188.798,323.149c-0.838,0-1.691-0.13-2.531-0.403c-12.201-3.971-23.782-9.008-34.421-14.972
	c-3.936-2.206-5.338-7.185-3.132-11.121c2.206-3.936,7.188-5.337,11.121-3.132c9.708,5.441,20.302,10.046,31.488,13.687
	c4.29,1.397,6.637,6.007,5.241,10.298C195.442,320.955,192.241,323.149,188.798,323.149z"/>
<path style="fill:#4693BD;" d="M256,333.53c-12.365,0-24.717-0.968-36.708-2.877c-4.457-0.709-7.494-4.897-6.786-9.353
	c0.709-4.455,4.897-7.493,9.353-6.785c11.146,1.775,22.633,2.674,34.141,2.674c35.289,0,68.539-8.184,96.16-23.669
	c3.938-2.207,8.916-0.804,11.122,3.132c2.206,3.936,0.804,8.915-3.132,11.121C330.095,324.624,294.08,333.53,256,333.53z"/>
<circle style="fill:#FFBB02;" cx="256" cy="88.729" r="80.56"/>
<path style="fill:#FFDD77;" d="M298.3,71.798c0-12.467-10.106-22.573-22.573-22.573c-8.487,0-15.873,4.686-19.727,11.61
	c-3.854-6.924-11.241-11.61-19.727-11.61c-12.467,0-22.573,10.106-22.573,22.573c0,5.11,1.699,9.823,4.562,13.606L256,135.286
	l37.739-49.881C296.602,81.62,298.3,76.909,298.3,71.798z"/>
<g>
	<path style="fill:#1D2328;" d="M195.864,193.767c-4.513,0-8.17,3.658-8.17,8.17c0,4.512,3.657,8.17,8.17,8.17h120.272
		c4.513,0,8.17-3.658,8.17-8.17c0-4.512-3.657-8.17-8.17-8.17H195.864z"/>
	<path style="fill:#1D2328;" d="M191.326,307.208c-11.187-3.641-21.78-8.245-31.488-13.687c-3.934-2.205-8.915-0.805-11.121,3.132
		c-2.206,3.937-0.804,8.915,3.132,11.121c10.639,5.964,22.219,11.001,34.421,14.972c0.84,0.273,1.693,0.403,2.531,0.403
		c3.441,0,6.644-2.194,7.767-5.644C197.963,313.215,195.616,308.604,191.326,307.208z"/>
	<path style="fill:#1D2328;" d="M352.16,293.522c-27.621,15.483-60.871,23.667-96.16,23.667c-11.508,0-22.993-0.9-34.141-2.674
		c-4.457-0.709-8.644,2.329-9.353,6.785c-0.708,4.457,2.329,8.644,6.786,9.353c11.993,1.909,24.344,2.877,36.708,2.877
		c38.08,0,74.095-8.906,104.15-25.756c3.936-2.206,5.338-7.185,3.132-11.121C361.077,292.718,356.098,291.315,352.16,293.522z"/>
	<path style="fill:#1D2328;" d="M360.871,135.648c-3.561-2.77-8.693-2.131-11.464,1.43c-2.771,3.561-2.131,8.694,1.43,11.466
		c19.236,14.967,29.83,33.929,29.83,53.392c0,45.53-55.925,82.573-124.667,82.573s-124.665-37.042-124.665-82.573
		c0-19.457,10.595-38.416,29.833-53.386c3.562-2.771,4.202-7.904,1.43-11.466c-2.77-3.561-7.906-4.199-11.464-1.43
		c-23.306,18.134-36.14,41.674-36.14,66.282v211.151c0,27.019,15.082,52.203,42.468,70.911C183.896,502.055,218.891,512,256,512
		s72.105-9.945,98.538-28.002c27.387-18.708,42.468-43.891,42.468-70.911V201.936C397.007,177.322,384.173,153.78,360.871,135.648z
		 M380.667,413.087c0,45.531-55.925,82.573-124.667,82.573s-124.665-37.042-124.665-82.573V248.443
		c6.756,8.927,15.513,17.154,26.127,24.405c26.434,18.057,61.429,28.002,98.538,28.002s72.105-9.945,98.538-28.002
		c10.615-7.251,19.371-15.479,26.127-24.405v164.644H380.667z"/>
	<path style="fill:#1D2328;" d="M256,177.461c48.926,0,88.731-39.804,88.731-88.731S304.926,0,256,0s-88.731,39.804-88.731,88.731
		S207.073,177.461,256,177.461z M256,16.34c39.916,0,72.39,32.474,72.39,72.39s-32.474,72.39-72.39,72.39s-72.39-32.474-72.39-72.39
		S216.084,16.34,256,16.34z"/>
	<path style="fill:#1D2328;" d="M249.485,140.215c1.545,2.041,3.957,3.241,6.515,3.241s4.972-1.199,6.515-3.241l37.738-49.881
		c4.067-5.375,6.217-11.785,6.217-18.535c0-16.952-13.791-30.743-30.743-30.743c-7.324,0-14.278,2.614-19.727,7.175
		c-5.449-4.56-12.405-7.175-19.727-7.175c-16.952,0-30.743,13.791-30.743,30.743c0,6.752,2.15,13.161,6.216,18.535L249.485,140.215z
		 M236.273,57.396c5.219,0,10.044,2.841,12.59,7.414c1.441,2.59,4.173,4.196,7.139,4.196c2.965,0,5.697-1.606,7.139-4.196
		c2.546-4.573,7.371-7.414,12.59-7.414c7.941,0,14.402,6.461,14.402,14.402c0,3.162-1.005,6.164-2.908,8.677L256,121.744
		l-31.223-41.269c-1.901-2.513-2.906-5.513-2.906-8.677C221.87,63.856,228.331,57.396,236.273,57.396z"/>
</g>
<g>
</g>
<g>
</g>
<g>
</g>
<g>
</g>
<g>
</g>
<g>
</g>
<g>
</g>
<g>
</g>
<g>
</g>
<g>
</g>
<g>
</g>
<g>
</g>
<g>
</g>
<g>
</g>
<g>
</g>
</svg>
