<?xml version="1.0" ?>
<!-- Uploaded to: SVG Repo, www.svgrepo.com, Generator: SVG Repo Mixer Tools -->
<svg width="800px" height="800px" viewBox="0 0 32 32" enable-background="new 0 0 32 32" version="1.1" xml:space="preserve" xmlns="http://www.w3.org/2000/svg" xmlns:xlink="http://www.w3.org/1999/xlink">
<g id="_x36_0"/>
<g id="_x35_9"/>
<g id="_x35_8"/>
<g id="_x35_7"/>
<g id="_x35_6"/>
<g id="_x35_5"/>
<g id="_x35_4"/>
<g id="_x35_3"/>
<g id="_x35_2"/>
<g id="_x35_1"/>
<g id="_x35_0"/>
<g id="_x34_9"/>
<g id="_x34_8"/>
<g id="_x34_7"/>
<g id="_x34_6"/>
<g id="_x34_5"/>
<g id="_x34_4"/>
<g id="_x34_3"/>
<g id="_x34_2"/>
<g id="_x34_1"/>
<g id="_x34_0"/>
<g id="_x33_9"/>
<g id="_x33_8"/>
<g id="_x33_7"/>
<g id="_x33_6"/>
<g id="_x33_5"/>
<g id="_x33_4"/>
<g id="_x33_3"/>
<g id="_x33_2"/>
<g id="_x33_1"/>
<g id="_x33_0"/>
<g id="_x32_9"/>
<g id="_x32_8"/>
<g id="_x32_7"/>
<g id="_x32_6"/>
<g id="_x32_5"/>
<g id="_x32_4_1_"/>
<g id="_x32_3"/>
<g id="_x32_2"/>
<g id="_x32_1"/>
<g id="_x32_0"/>
<g id="_x31_9"/>
<g id="_x31_8"/>
<g id="_x31_7"/>
<g id="_x31_6"/>
<g id="_x31_5"/>
<g id="_x31_4"/>
<g id="_x31_3"/>
<g id="_x31_2"/>
<g id="_x31_1"/>
<g id="_x31_0"/>
<g id="_x39_"/>
<g id="_x38_"/>
<g id="_x37_">
<g>
<circle cx="18" cy="10" fill="#FFFFFF" r="5"/>
<path d="M26,27v-8c0-2.2091389-1.7908611-4-4-4h-8c-2.2091389,0-4,1.7908611-4,4v8H26z" fill="#CAEAF0"/>
<path d="M18.2590923,26.8882427l-3.5060616-1.9254951    c-0.9681721-0.5317116-1.3219938-1.7476063-0.7902832-2.7157784l2.8882427-5.2590923    c0.5317097-0.9681721,1.7476044-1.3219948,2.7157764-0.7902851l3.5060635,1.9254951    c0.9681721,0.5317116,1.3219929,1.7476063,0.7902832,2.7157784l-2.8882427,5.2590923    C20.443161,27.0661316,19.2272644,27.4199524,18.2590923,26.8882427z" fill="#CAEAF0"/>
<circle cx="22" cy="16" fill="#FFFFFF" r="3.9992537"/>
</g>
<path d="M26.9758301,15.880188c-0.0447998-1.7207642-0.9552002-3.3758545-2.5695801-4.2620239   c-0.1837158-0.1008911-0.3783569-0.1678467-0.5700073-0.2443237C23.9413452,10.9263916,24,10.4680176,24,10   c0-3.3085938-2.6914063-6-6-6s-6,2.6914063-6,6c0,1.5449219,0.5869141,2.9555664,1.5498047,4.0200195   C11.0029297,14.2485352,9,16.3945313,9,19v8c0,0.5522461,0.4472656,1,1,1h12c0.5527344,0,1-0.4477539,1-1   c0-0.4949951-0.3659668-0.8875122-0.8384399-0.9674072L25,21.0274658V27c0,0.5522461,0.4472656,1,1,1s1-0.4477539,1-1V16   C27,15.9575195,26.980957,15.9212646,26.9758301,15.880188z M18,6c2.2060547,0,4,1.7944336,4,4   c0,0.3500977-0.0600586,0.6886597-0.147644,1.0203857c-0.4180908,0.0130005-0.8366089,0.0593872-1.2488403,0.1793213   c-1.2822266,0.3730469-2.3427734,1.2231445-2.9863281,2.394043c-0.0627441,0.1143188-0.0965576,0.2355347-0.1494751,0.352417   C15.5150757,13.6828613,14,12.0233154,14,10C14,7.7944336,15.7939453,6,18,6z M11,26v-7c0-1.6542969,1.3457031-3,3-3h2.2978516   l-3.2109375,5.7651367c-0.3867188,0.7026367-0.4755859,1.5131836-0.2519531,2.2832031   c0.2246094,0.769043,0.734375,1.4052734,1.4365234,1.7910156L14.5640259,26H11z M20.1044922,25.6049805   C20.0332031,25.7306519,19.9954224,25.8649292,19.9822388,26h-1.2633667l-3.4844971-1.9135742   c-0.234375-0.128418-0.4042969-0.3408203-0.4785156-0.597168c-0.0751953-0.2563477-0.0449219-0.5263672,0.0810547-0.7553711   l2.6196899-4.7026978c0.421936,0.9647827,1.1428833,1.8048706,2.137146,2.350647   c0.7480469,0.4106445,1.5693359,0.6196289,2.3994141,0.6196289c0.2521362,0,0.5048828-0.0227661,0.756897-0.0615234   L20.1044922,25.6049805z M24.6289063,17.4443359c-0.3857422,0.7021484-1.0214844,1.2119141-1.7910156,1.4355469   c-0.7685547,0.2241211-1.5800781,0.1352539-2.28125-0.2509766c-1.4501953-0.7958984-1.9814453-2.6230469-1.1855469-4.0727539   c0.3857422-0.7021484,1.0214844-1.2124023,1.7910156-1.4360352c0.2773438-0.0810547,0.5605469-0.1210938,0.8417969-0.1210938   c0.4980469,0,0.9912109,0.1254883,1.4394531,0.3720703C24.8935547,14.1669922,25.4248047,15.9941406,24.6289063,17.4443359z    M10,11.5384521C10,13.2354126,7.75,15,7,15s-3-1.7645874-3-3.4615479C4,10.6888428,4.6708984,10,5.5,10S7,10.6888428,7,11.5384521   C7,10.6888428,7.6708984,10,8.5,10S10,10.6888428,10,11.5384521z" fill="#4D4D4D"/>
</g>
<g id="_x36_"/>
<g id="_x35_"/>
<g id="_x34_"/>
<g id="_x33_"/>
<g id="_x32_"/>
<g id="_x31_"/>
<g id="Guides"/>
</svg>