<?xml version="1.0" encoding="iso-8859-1"?>
<!-- Generator: Adobe Illustrator 19.0.0, SVG Export Plug-In . SVG Version: 6.00 Build 0)  -->
<svg version="1.1" id="Layer_1" xmlns="http://www.w3.org/2000/svg" xmlns:xlink="http://www.w3.org/1999/xlink" x="0px" y="0px"
	 viewBox="0 0 512.001 512.001" style="enable-background:new 0 0 512.001 512.001;" xml:space="preserve">
<path style="fill:#99DAEA;" d="M501.059,173.776l-95.76-95.759c-9.099-9.099-21.439-14.21-34.306-14.21H140.996
	c-12.867,0-25.207,5.111-34.305,14.21l-95.759,95.759c-3.808,3.808-3.808,9.984,0,13.792l51.634,51.634
	c3.808,3.808,9.984,3.808,13.792,0l34.642-34.642c3.654-3.653,9.901-1.066,9.901,4.101v225.107c0,7.967,6.459,14.426,14.426,14.426
	h241.339c7.967,0,14.426-6.459,14.426-14.426V208.66c0-5.166,6.248-7.755,9.901-4.101l34.642,34.642
	c3.808,3.808,9.983,3.808,13.792,0l51.634-51.634C504.867,183.759,504.867,177.584,501.059,173.776z"/>
<path style="fill:#6DABE4;" d="M182.889,63.807c0,40.376,32.732,73.109,73.108,73.109s73.108-32.732,73.108-73.109H182.889z"/>
<path style="opacity:0.25;enable-background:new    ;" d="M211.509,63.807c0,24.571,19.919,44.49,44.49,44.49
	c24.571,0,44.49-19.919,44.49-44.49C300.488,63.807,211.509,63.807,211.509,63.807z"/>
<g>
	<rect x="120.898" y="325.929" style="fill:#FF6361;" width="270.19" height="48.819"/>
	<rect x="120.898" y="236.3" style="fill:#FF6361;" width="270.19" height="48.819"/>
</g>
<path style="opacity:0.1;enable-background:new    ;" d="M156.185,426.342c-7.967,0-14.426-6.459-14.426-14.426V163.095
	c0-5.166-6.246-7.755-9.901-4.101l-53.719,53.53c-3.808,3.808-9.984,3.808-13.792,0l-46.083-46.083l-7.334,7.334
	c-3.808,3.808-3.808,9.984,0,13.792l51.634,51.634c3.808,3.808,9.984,3.808,13.792,0l34.642-34.642
	c3.654-3.653,9.901-1.066,9.901,4.101v225.107c0,7.967,6.459,14.426,14.426,14.426h241.339c7.967,0,14.426-6.459,14.426-14.426
	v-7.426H156.185z"/>
<path style="fill:#1E252B;" d="M506.776,168.059L411.016,72.3c-10.69-10.691-24.903-16.577-40.022-16.577h-230
	c-15.118,0-29.332,5.888-40.022,16.577L5.214,168.06c-6.953,6.955-6.953,18.27,0,25.223l51.634,51.634
	c3.37,3.37,7.848,5.225,12.613,5.225s9.243-1.855,12.613-5.225l30.742-30.742v219.592c0,12.412,10.098,22.51,22.51,22.51h241.339
	c12.412,0,22.51-10.098,22.51-22.51V214.175l30.742,30.742c3.37,3.37,7.848,5.225,12.613,5.225s9.243-1.855,12.613-5.225
	l51.633-51.634c3.37-3.368,5.225-7.848,5.225-12.613C511.999,175.907,510.144,171.428,506.776,168.059z M291.488,71.892
	c-3.688,16.195-18.195,28.321-35.49,28.321s-31.802-12.127-35.489-28.321H291.488z M204.046,71.892
	c3.901,25.165,25.71,44.49,51.952,44.49s48.051-19.325,51.952-44.49h12.552c-3.995,32.051-31.389,56.941-64.503,56.941
	s-60.509-24.889-64.503-56.941C191.496,71.892,204.046,71.892,204.046,71.892z M495.342,181.851l-51.634,51.634
	c-0.403,0.403-0.864,0.488-1.179,0.488c-0.315,0-0.776-0.085-1.179-0.488l-34.642-34.642c-3.987-3.985-9.925-5.166-15.132-3.01
	c-5.206,2.157-8.57,7.192-8.57,12.827v225.108c0,3.497-2.845,6.341-6.341,6.341H135.326c-3.497,0-6.341-2.845-6.341-6.341V208.66
	c0-5.635-3.364-10.67-8.57-12.827c-1.729-0.716-3.537-1.064-5.328-1.064c-3.606,0-7.14,1.411-9.804,4.073L70.64,233.485
	c-0.403,0.403-0.864,0.488-1.179,0.488s-0.776-0.085-1.179-0.488l-51.634-51.634c-0.651-0.651-0.651-1.708,0-2.358l95.76-95.759
	c7.636-7.637,17.789-11.842,28.587-11.842h34.214c4.071,40.989,38.747,73.109,80.788,73.109s76.718-32.121,80.788-73.109h34.209
	c10.8,0,20.952,4.205,28.588,11.842l95.76,95.759c0.404,0.404,0.488,0.864,0.488,1.179S495.747,181.446,495.342,181.851z"/>
<g>
</g>
<g>
</g>
<g>
</g>
<g>
</g>
<g>
</g>
<g>
</g>
<g>
</g>
<g>
</g>
<g>
</g>
<g>
</g>
<g>
</g>
<g>
</g>
<g>
</g>
<g>
</g>
<g>
</g>
</svg>
