<?xml version="1.0" encoding="iso-8859-1"?>
<!-- Generator: Adobe Illustrator 19.0.0, SVG Export Plug-In . SVG Version: 6.00 Build 0)  -->
<svg version="1.1" id="Capa_1" xmlns="http://www.w3.org/2000/svg" xmlns:xlink="http://www.w3.org/1999/xlink" x="0px" y="0px"
	 viewBox="0 0 512 512" style="enable-background:new 0 0 512 512;" xml:space="preserve">
<g>
	<g>
		<path style="fill:#FFEE43;" d="M480,252c-4.422,0-8,3.582-8,8H40c0-4.418-3.578-8-8-8s-8,3.582-8,8v208c0,22.055,17.945,40,40,40
			h384c22.055,0,40-17.945,40-40V260C488,255.582,484.422,252,480,252z"/>
	</g>
	<g>
		<path style="fill:#FFD100;" d="M480,164H32c-17.648,0-32,14.355-32,32v48c0,17.645,14.352,32,32,32h448c17.648,0,32-14.355,32-32
			v-48C512,178.355,497.648,164,480,164z"/>
	</g>
	<g>
		<g>
			<rect x="224" y="156" style="fill:#FF4F19;" width="64" height="352"/>
		</g>
	</g>
	<g>
		<g>
			<polygon style="fill:#E7001E;" points="224,407.313 288,471.313 288,448.688 224,384.688 			"/>
		</g>
		<g>
			<polygon style="fill:#E7001E;" points="224,367.313 288,431.313 288,408.688 224,344.688 			"/>
		</g>
		<g>
			<polygon style="fill:#E7001E;" points="288,231.313 288,208.688 235.313,156 224,156 224,167.313 			"/>
		</g>
		<g>
			<polygon style="fill:#E7001E;" points="224,327.313 288,391.313 288,368.688 224,304.688 			"/>
		</g>
		<g>
			<polygon style="fill:#E7001E;" points="224,424.688 224,447.313 284.688,508 288,508 288,488.688 			"/>
		</g>
		<g>
			<polygon style="fill:#E7001E;" points="224,287.313 288,351.313 288,328.688 224,264.688 			"/>
		</g>
		<g>
			<polygon style="fill:#E7001E;" points="224,207.313 288,271.313 288,248.688 224,184.688 			"/>
		</g>
		<g>
			<polygon style="fill:#E7001E;" points="267.313,508 224,464.688 224,487.313 244.688,508 			"/>
		</g>
		<g>
			<polygon style="fill:#E7001E;" points="224,247.313 288,311.313 288,288.688 224,224.688 			"/>
		</g>
	</g>
	<g>
		<path style="fill:#E7001E;" d="M424,291.969c-31.586,0-50.203-32.934-68.203-64.785c-13.333-23.584-27.024-47.742-46.855-58.039
			c37.64-14.671,85.006-34.957,99.145-49.094c26.516-26.512,26.516-69.652,0-96.164c-26.516-26.516-69.656-26.516-96.172,0
			C295.42,40.378,270.544,102.129,256,140.862c-14.544-38.732-39.42-100.484-55.914-116.975c-26.516-26.516-69.656-26.516-96.172,0
			c-26.516,26.512-26.516,69.652,0,96.164c14.139,14.137,61.504,34.423,99.145,49.094c-19.832,10.297-33.522,34.455-46.855,58.039
			c-18,31.852-36.617,64.785-68.203,64.785c-6.625,0-12,5.371-12,12s5.375,12,12,12c45.586,0,68.703-40.895,89.094-76.977
			c14.836-26.238,28.844-51.023,46.906-51.023V188h64v-0.031c18.063,0,32.07,24.785,46.906,51.023
			c20.391,36.082,43.508,76.977,89.094,76.977c6.625,0,12-5.371,12-12S430.625,291.969,424,291.969z M328.883,40.855
			c8.578-8.578,19.844-12.863,31.117-12.863c11.266,0,22.539,4.289,31.117,12.863c17.156,17.156,17.156,45.07,0,62.227
			c-12.219,12.219-69.773,36.078-115.156,52.926C292.805,110.625,316.664,53.074,328.883,40.855z M120.883,40.855
			c8.578-8.578,19.844-12.863,31.117-12.863c11.266,0,22.539,4.289,31.117,12.863c12.219,12.219,36.078,69.77,52.922,115.152
			c-45.383-16.848-102.938-40.707-115.156-52.926C103.727,85.926,103.727,58.012,120.883,40.855z"/>
	</g>
</g>
<g>
</g>
<g>
</g>
<g>
</g>
<g>
</g>
<g>
</g>
<g>
</g>
<g>
</g>
<g>
</g>
<g>
</g>
<g>
</g>
<g>
</g>
<g>
</g>
<g>
</g>
<g>
</g>
<g>
</g>
</svg>
