<?xml version="1.0" encoding="iso-8859-1"?>
<!-- Uploaded to: SVG Repo, www.svgrepo.com, Generator: SVG Repo Mixer Tools -->
<svg version="1.1" id="Layer_1" xmlns="http://www.w3.org/2000/svg" xmlns:xlink="http://www.w3.org/1999/xlink" 
	 viewBox="0 0 512 512" xml:space="preserve">
<g>
	<rect x="196.676" y="224.468" style="fill:#FF8C78;" width="41.687" height="53.979"/>
	<rect x="384.802" y="224.468" style="fill:#FF8C78;" width="41.687" height="53.979"/>
</g>
<g>
	<path style="fill:#DF7A6E;" d="M238.363,200.417c0-4.427-3.588-8.017-8.017-8.017h-25.653c-4.428,0-8.017,3.589-8.017,8.017v51.307
		h41.687V200.417z"/>
	<path style="fill:#DF7A6E;" d="M426.489,200.417c0-4.427-3.588-8.017-8.017-8.017h-25.653c-4.428,0-8.017,3.589-8.017,8.017v51.307
		h41.687V200.417z"/>
</g>
<path style="fill:#6DDAE1;" d="M461.228,269.361H170.489c-4.428,0-8.017,3.589-8.017,8.017v188.125c0,4.427,3.588,8.017,8.017,8.017
	h290.739c4.428,0,8.017-3.589,8.017-8.017V277.378C469.244,272.95,465.656,269.361,461.228,269.361z"/>
<path style="fill:#4FC4D4;" d="M170.489,269.361c-4.428,0-8.017,3.589-8.017,8.017v188.125c0,4.427,3.588,8.017,8.017,8.017H362.09
	L207.969,269.361H170.489z"/>
<g>
	<path style="fill:#C8F4F7;" d="M222.864,329.219h-18.171c-4.428,0-8.017,3.589-8.017,8.017v68.409c0,4.427,3.588,8.017,8.017,8.017
		s8.017-3.589,8.017-8.017v-26.206c0.176,0.012,4.131,0.018,4.131,0.018l14.886,29.773c2.083,4.17,7.445,5.675,11.406,3.22
		c3.473-2.152,4.759-6.74,2.934-10.39l-11.301-22.603h4.131c4.428,0,8.017-3.589,8.017-8.017v-18.171
		C246.914,340.007,236.125,329.219,222.864,329.219z M212.71,363.442v-18.189h10.154c4.421,0,8.017,3.596,8.017,8.017v10.154
		h-17.637C213.065,363.424,212.886,363.429,212.71,363.442z"/>
	<path style="fill:#C8F4F7;" d="M298.756,345.252c4.428,0,8.017-3.589,8.017-8.017s-3.588-8.017-8.017-8.017h-34.205
		c-4.428,0-8.017,3.589-8.017,8.017v68.409c0,4.427,3.588,8.017,8.017,8.017h34.205c4.428,0,8.017-3.589,8.017-8.017
		c0-4.427-3.588-8.017-8.017-8.017h-26.188v-18.171h9.086c4.428,0,8.017-3.589,8.017-8.017c0-4.427-3.588-8.017-8.017-8.017h-9.086
		v-18.171H298.756z"/>
	<path style="fill:#C8F4F7;" d="M367.165,329.219c-4.428,0-8.017,3.589-8.017,8.017v40.457l-27.941-44.705
		c-1.895-3.034-5.574-4.44-9.009-3.457c-3.439,0.986-5.807,4.13-5.807,7.706v68.409c0,4.427,3.588,8.017,8.017,8.017
		s8.017-3.589,8.017-8.017v-40.457l27.941,44.705c1.964,3.143,5.946,4.536,9.444,3.318c3.181-1.109,5.371-4.196,5.371-7.567v-68.409
		C375.182,332.808,371.593,329.219,367.165,329.219z"/>
	<path style="fill:#C8F4F7;" d="M427.023,329.219h-34.205c-4.428,0-8.017,3.589-8.017,8.017s3.588,8.017,8.017,8.017h9.086v60.392
		c0,4.427,3.588,8.017,8.017,8.017s8.017-3.589,8.017-8.017v-60.392h9.086c4.428,0,8.017-3.589,8.017-8.017
		S431.451,329.219,427.023,329.219z"/>
</g>
<path style="fill:#FFD791;" d="M141.953,57.931L90.646,6.624c-3.132-3.131-8.207-3.131-11.338,0L28.002,57.931
	c-1.504,1.503-2.348,3.542-2.348,5.668v436.109c0,4.427,3.588,8.017,8.017,8.017h102.614c4.428,0,8.017-3.589,8.017-8.017V63.599
	C144.301,61.473,143.456,59.434,141.953,57.931z"/>
<g>
	<rect x="25.653" y="97.804" style="fill:#F8BE73;" width="118.647" height="153.921"/>
	<path style="fill:#F8BE73;" d="M102.079,440.384c-4.428,0-8.017,3.589-8.017,8.017v59.324h16.033v-59.324
		C110.096,443.973,106.508,440.384,102.079,440.384z"/>
	<path style="fill:#F8BE73;" d="M102.079,277.912c-4.428,0-8.017,3.589-8.017,8.017v102.614c0,4.427,3.588,8.017,8.017,8.017
		c4.428,0,8.017-3.589,8.017-8.017V285.929C110.096,281.502,106.508,277.912,102.079,277.912z"/>
	<path style="fill:#F8BE73;" d="M67.875,243.708c-4.428,0-8.017,3.589-8.017,8.017v171.023c0,4.427,3.588,8.017,8.017,8.017
		s8.017-3.589,8.017-8.017V251.724C75.891,247.297,72.303,243.708,67.875,243.708z"/>
	<path style="fill:#F8BE73;" d="M67.875,88.718c4.428,0,8.017-3.589,8.017-8.017V10.04L59.858,26.073v54.628
		C59.858,85.129,63.446,88.718,67.875,88.718z"/>
	<path style="fill:#F8BE73;" d="M102.079,64.133c-4.428,0-8.017,3.589-8.017,8.017v51.307c0,4.427,3.588,8.017,8.017,8.017
		c4.428,0,8.017-3.589,8.017-8.017V72.15C110.096,67.723,106.508,64.133,102.079,64.133z"/>
</g>
<path style="fill:#FFD791;" d="M509.653,169.096l-51.307-51.307c-1.504-1.504-3.542-2.348-5.669-2.348H8.017
	C3.588,115.44,0,119.03,0,123.457v102.614c0,4.427,3.588,8.017,8.017,8.017h444.66c2.126,0,4.164-0.844,5.669-2.348l51.307-51.307
	C512.782,177.303,512.782,172.225,509.653,169.096z"/>
<path style="fill:#FF8C78;" d="M84.977,149.645c-13.851,0-25.119,11.268-25.119,25.119c0,13.851,11.268,25.119,25.119,25.119
	s25.119-11.268,25.119-25.119C110.096,160.913,98.828,149.645,84.977,149.645z"/>
<path style="fill:#DF7A6E;" d="M84.977,157.662c-9.43,0-17.102,7.673-17.102,17.102c0,9.43,7.673,17.102,17.102,17.102
	s17.102-7.673,17.102-17.102C102.079,165.334,94.407,157.662,84.977,157.662z"/>
<g>
	<path style="fill:#F8BE73;" d="M452.676,199.883h-94.063c-4.428,0-8.017-3.589-8.017-8.017s3.588-8.017,8.017-8.017h94.063
		c4.428,0,8.017,3.589,8.017,8.017S457.105,199.883,452.676,199.883z"/>
	<path style="fill:#F8BE73;" d="M384.267,165.678H196.142c-4.428,0-8.017-3.589-8.017-8.017s3.588-8.017,8.017-8.017h188.125
		c4.428,0,8.017,3.589,8.017,8.017S388.696,165.678,384.267,165.678z"/>
	<path style="fill:#F8BE73;" d="M281.653,199.883h-145.37c-4.428,0-8.017-3.589-8.017-8.017s3.588-8.017,8.017-8.017h145.37
		c4.428,0,8.017,3.589,8.017,8.017S286.082,199.883,281.653,199.883z"/>
</g>
</svg>