<?xml version="1.0" encoding="iso-8859-1"?>
<!-- Generator: Adobe Illustrator 19.0.0, SVG Export Plug-In . SVG Version: 6.00 Build 0)  -->
<svg version="1.1" id="Capa_1" xmlns="http://www.w3.org/2000/svg" xmlns:xlink="http://www.w3.org/1999/xlink" x="0px" y="0px"
	 viewBox="0 0 167.368 167.368" style="enable-background:new 0 0 167.368 167.368;" xml:space="preserve">
<g>
	<g>
		<g>
			<circle style="fill:#91ADB8;" cx="84.476" cy="93.749" r="59.148"/>
			<path style="fill:#C0D2D8;" d="M84.476,150.481c-31.282,0-56.732-25.45-56.732-56.732s25.45-56.731,56.732-56.731
				c31.281,0,56.731,25.45,56.731,56.731C141.208,125.031,115.757,150.481,84.476,150.481z M84.476,38.791
				c-30.305,0-54.959,24.654-54.959,54.958c0,30.305,24.654,54.959,54.959,54.959c30.304,0,54.958-24.654,54.958-54.959
				C139.434,63.445,114.78,38.791,84.476,38.791z"/>
			<circle style="fill:#C0D2D8;" cx="84.477" cy="93.749" r="47.384"/>
			<circle style="fill:#91ADB8;" cx="84.476" cy="93.749" r="39.541"/>
		</g>
		<path style="fill:#91ADB8;" d="M84.476,34.891c-5.63,0-10.209-4.58-10.209-10.21s4.579-10.209,10.209-10.209
			s10.209,4.58,10.209,10.209S90.106,34.891,84.476,34.891z M84.476,17.161c-4.147,0-7.521,3.373-7.521,7.52
			s3.374,7.521,7.521,7.521c4.147,0,7.521-3.374,7.521-7.521S88.624,17.161,84.476,17.161z"/>
	</g>
	<g>
		<g>
			<path style="fill:#91ADB8;" d="M158.752,49.515V95.87c0,1.266,1.574,1.85,2.4,0.89l4.999-12.006
				c0.304-0.353,0.406-0.836,0.272-1.282l-5-34.349C160.97,47.617,158.752,47.944,158.752,49.515z"/>
			<path style="fill:#91ADB8;" d="M160.126,98.124c-0.264,0-0.531-0.047-0.792-0.144c-0.893-0.331-1.469-1.159-1.469-2.11V49.515
				c0-1.145,0.791-2.061,1.923-2.227c1.13-0.171,2.154,0.483,2.483,1.58l0.028,0.127l4.992,34.292
				c0.178,0.668,0.041,1.371-0.37,1.921l-5.098,12.129C161.385,97.848,160.767,98.124,160.126,98.124z M160.138,49.035
				c-0.033,0-0.064,0.003-0.092,0.007c-0.152,0.022-0.407,0.113-0.407,0.473V95.87c0,0.3,0.218,0.413,0.312,0.448
				c0.082,0.031,0.274,0.076,0.451-0.062l5.078-12.081c0.106-0.124,0.142-0.292,0.095-0.449l-0.028-0.127l-4.989-34.271
				C160.465,49.088,160.281,49.035,160.138,49.035z"/>
		</g>
		<g>
			<path style="fill:#D12200;" d="M162.616,137.53L162.616,137.53c-2.134,0-3.864-1.73-3.864-3.864V93.749h3.864V137.53z"/>
			<path style="fill:#D12200;" d="M163.503,138.417h-0.887c-2.619,0-4.751-2.132-4.751-4.751V92.862h5.638V138.417z M159.639,94.635
				v39.03c0,1.333,0.881,2.465,2.091,2.843V94.635H159.639z"/>
		</g>
	</g>
	<g>
		<g>
			<g>
				<path style="fill:#91ADB8;" d="M6.783,74.352v17.97c0,1.266,1.574,1.85,2.399,0.89L9.454,73.96
					C9.002,72.455,6.783,72.781,6.783,74.352z"/>
				<path style="fill:#91ADB8;" d="M8.157,94.576c-0.264,0-0.532-0.047-0.792-0.144c-0.892-0.33-1.469-1.159-1.469-2.11v-17.97
					c0-1.145,0.791-2.06,1.923-2.227c1.134-0.17,2.155,0.484,2.483,1.58l0.039,0.131l-0.278,19.71L9.854,93.79
					C9.415,94.3,8.797,94.576,8.157,94.576z M8.169,73.872c-0.033,0-0.064,0.003-0.092,0.007c-0.152,0.022-0.408,0.114-0.408,0.473
					v17.97c0,0.3,0.218,0.413,0.312,0.448c0.062,0.023,0.188,0.055,0.32,0.01l0.264-18.667C8.468,73.917,8.302,73.872,8.169,73.872z
					"/>
			</g>
			<g>
				<path style="fill:#91ADB8;" d="M6.892,76.251c-0.956,0-3.14-0.189-4.843-1.754C0.689,73.247,0,71.482,0,69.25V56.023
					c0-0.979,0.794-1.773,1.773-1.773s1.773,0.794,1.773,1.773V69.25c0,1.199,0.303,2.085,0.901,2.635
					c0.988,0.908,2.583,0.815,2.6,0.816c0.968-0.086,1.833,0.641,1.917,1.617c0.083,0.976-0.641,1.834-1.617,1.917
					C7.284,76.239,7.124,76.251,6.892,76.251z"/>
				<path style="fill:#91ADB8;" d="M9.175,76.251c-0.233,0-0.393-0.011-0.455-0.017c-0.976-0.083-1.7-0.941-1.617-1.917
					c0.082-0.976,0.929-1.704,1.917-1.617c0.005,0,1.622,0.098,2.614-0.829c0.589-0.55,0.887-1.432,0.887-2.622V56.023
					c0-0.979,0.794-1.773,1.773-1.773s1.773,0.794,1.773,1.773V69.25c0,2.232-0.689,3.998-2.048,5.247
					C12.315,76.061,10.131,76.251,9.175,76.251z"/>
			</g>
			<path style="fill:#91ADB8;" d="M8.033,76.386c-0.979,0-1.773-0.794-1.773-1.773V56.023c0-0.979,0.794-1.773,1.773-1.773
				s1.773,0.794,1.773,1.773v18.591C9.806,75.592,9.012,76.386,8.033,76.386z"/>
		</g>
		<g>
			<path style="fill:#D12200;" d="M10.051,135.756L10.051,135.756c-2.134,0-3.864-1.729-3.864-3.863V90.201h3.864V135.756z"/>
			<path style="fill:#D12200;" d="M10.938,136.642h-0.887c-2.619,0-4.75-2.131-4.75-4.75V89.314h5.637V136.642z M7.074,91.088
				v40.805c0,1.333,0.88,2.464,2.09,2.842V91.088H7.074z"/>
		</g>
	</g>
	<g style="opacity:0.5;">
		<path style="fill:#91ADB8;" d="M86.64,34.655c4.593-0.996,8.045-5.087,8.045-9.974c0-5.629-4.579-10.209-10.209-10.209l0,0v2.689
			l0,0c4.147,0,7.521,3.373,7.521,7.52s-3.374,7.521-7.521,7.521l0,0v120.695c32.667,0,59.148-26.482,59.148-59.149
			C143.625,61.808,118.302,35.796,86.64,34.655z"/>
	</g>
</g>
<g>
</g>
<g>
</g>
<g>
</g>
<g>
</g>
<g>
</g>
<g>
</g>
<g>
</g>
<g>
</g>
<g>
</g>
<g>
</g>
<g>
</g>
<g>
</g>
<g>
</g>
<g>
</g>
<g>
</g>
</svg>
