<?xml version="1.0" encoding="utf-8"?>
<!-- Uploaded to: SVG Repo, www.svgrepo.com, Generator: SVG Repo Mixer Tools -->
<svg width="800px" height="800px" viewBox="0 0 1024 1024" class="icon"  version="1.1" xmlns="http://www.w3.org/2000/svg"><path d="M304.789333 960.042667l89.066667-160.341334-37.290667-20.693333L256 960.042667zM719.210667 960.042667l-89.066667-160.341334 37.290667-20.693333L768 960.042667z" fill="#607D8B" /><path d="M810.666667 810.666667V245.333333C810.666667 168.746667 748.586667 149.333333 672 149.333333h-320c-76.586667 0-138.666667 19.413333-138.666667 96V810.666667h597.333334z" fill="#4CAF50" /><path d="M512 64c-47.061333 0-85.333333 38.272-85.333333 85.333333s38.272 85.333333 85.333333 85.333334 85.333333-38.272 85.333333-85.333334-38.272-85.333333-85.333333-85.333333z" fill="#388E3C" /><path d="M512 149.333333m-42.666667 0a42.666667 42.666667 0 1 0 85.333334 0 42.666667 42.666667 0 1 0-85.333334 0Z" fill="#FFEB3B" /><path d="M810.666667 810.666667s0.021333 42.666667-42.666667 42.666666H256c-42.666667 0-42.666667-42.666667-42.666667-42.666666v-149.333334h597.333334v149.333334z" fill="#37474F" /><path d="M298.666667 640a42.666667 42.666667 0 1 1-0.021334 85.354667A42.666667 42.666667 0 0 1 298.666667 640m0-42.666667c-47.061333 0-85.333333 38.272-85.333334 85.333334s38.272 85.333333 85.333334 85.333333 85.333333-38.272 85.333333-85.333333-38.272-85.333333-85.333333-85.333334zM725.333333 640a42.666667 42.666667 0 1 1-0.021333 85.354667A42.666667 42.666667 0 0 1 725.333333 640m0-42.666667c-47.061333 0-85.333333 38.272-85.333333 85.333334s38.272 85.333333 85.333333 85.333333 85.333333-38.272 85.333334-85.333333-38.272-85.333333-85.333334-85.333334z" fill="#37474F" /><path d="M736 256H533.333333v192h202.666667a32 32 0 0 0 32-32v-128a32 32 0 0 0-32-32zM490.666667 256h-202.666667a32 32 0 0 0-32 32v128a32 32 0 0 0 32 32H490.666667v-192z" fill="#0B420D" /><path d="M298.666667 682.666667m-42.666667 0a42.666667 42.666667 0 1 0 85.333333 0 42.666667 42.666667 0 1 0-85.333333 0Z" fill="#C5CAE9" /><path d="M725.333333 682.666667m-42.666666 0a42.666667 42.666667 0 1 0 85.333333 0 42.666667 42.666667 0 1 0-85.333333 0Z" fill="#C5CAE9" /></svg>