<?xml version="1.0" encoding="iso-8859-1"?>
<!-- Uploaded to: SVG Repo, www.svgrepo.com, Generator: SVG Repo Mixer Tools -->
<svg version="1.1" id="Layer_1" xmlns="http://www.w3.org/2000/svg" xmlns:xlink="http://www.w3.org/1999/xlink" 
	 viewBox="0 0 511.999 511.999" xml:space="preserve">
<g>
	<path style="fill:#E6773D;" d="M238.932,491.651l-9.315-177.423l-17.165,0.902l8.971,170.865l0.328,0.105l-24.919,9.14
		c-4.508,1.486-6.957,6.346-5.471,10.854c1.486,4.509,6.346,6.956,10.854,5.471l30.813-11.301
		C236.793,499.023,239.113,495.423,238.932,491.651z"/>
	<path style="fill:#E6773D;" d="M273.067,491.651l9.315-177.423l17.165,0.902l-8.971,170.865l-0.328,0.105l24.919,9.14
		c4.508,1.486,6.957,6.346,5.471,10.854c-1.486,4.509-6.346,6.956-10.854,5.471l-30.813-11.301
		C275.205,499.023,272.886,495.423,273.067,491.651z"/>
	<path style="fill:#E6773D;" d="M406.729,94.236c-4.741-0.515-8.962,2.892-9.478,7.61c-2.649,24.243-14.582,46.003-33.597,61.27
		c-19.015,15.267-42.836,22.222-67.082,19.567h-81.143c-50.041,5.474-95.208-30.793-100.68-80.836
		c-0.516-4.718-4.76-8.113-9.478-7.61c-4.719,0.516-8.126,4.759-7.61,9.478c6.064,55.48,53.182,96.706,107.764,96.704l101.274,0.008
		c24.587,0,48.267-8.292,67.715-23.907c22.596-18.142,36.775-43.999,39.924-72.804C414.853,98.995,411.446,94.751,406.729,94.236z"
		/>
</g>
<circle style="fill:#5C4853;" cx="255.997" cy="21.772" r="21.772"/>
<path style="fill:#39C8C6;" d="M284.934,171.922h-57.869c-10.616,0-19.301,8.685-19.301,19.301v111.943
	c0,26.639,21.596,48.235,48.235,48.235s48.235-21.596,48.235-48.235V191.223C304.234,180.607,295.55,171.922,284.934,171.922z"/>
<path style="fill:#E6773D;" d="M305.713,93.267c0,27.462-22.259,49.704-49.722,49.704c-27.444,0-49.704-22.241-49.704-49.704
	s22.261-49.722,49.704-49.722C283.452,43.545,305.713,65.805,305.713,93.267z"/>
<rect x="71.825" y="94.183" style="fill:#460929;" width="68.755" height="17.189"/>
<g>
	<path style="fill:#5C4853;" d="M71.827,134.292c-4.746,0-8.594-3.847-8.594-8.594V79.861c0-4.748,3.848-8.594,8.594-8.594
		s8.594,3.847,8.594,8.594v45.837C80.421,130.444,76.573,134.292,71.827,134.292z"/>
	<path style="fill:#5C4853;" d="M140.582,134.292c-4.746,0-8.594-3.847-8.594-8.594V79.861c0-4.748,3.848-8.594,8.594-8.594
		s8.594,3.847,8.594,8.594v45.837C149.176,130.444,145.328,134.292,140.582,134.292z"/>
</g>
<rect x="371.414" y="94.183" style="fill:#460929;" width="68.755" height="17.189"/>
<g>
	<path style="fill:#5C4853;" d="M371.417,134.292c-4.746,0-8.594-3.847-8.594-8.594V79.861c0-4.748,3.848-8.594,8.594-8.594
		c4.746,0,8.594,3.847,8.594,8.594v45.837C380.012,130.444,376.164,134.292,371.417,134.292z"/>
	<path style="fill:#5C4853;" d="M440.172,134.292c-4.746,0-8.594-3.847-8.594-8.594V79.861c0-4.748,3.848-8.594,8.594-8.594
		c4.746,0,8.594,3.847,8.594,8.594v45.837C448.767,130.444,444.919,134.292,440.172,134.292z"/>
</g>
<path style="fill:#76DEDD;" d="M303.052,85.82h-94.105c-4.746,0-8.594-3.847-8.594-8.594s3.848-8.594,8.594-8.594h94.105
	c4.746,0,8.594,3.847,8.594,8.594S307.798,85.82,303.052,85.82z"/>
</svg>