<?xml version="1.0" encoding="iso-8859-1"?>
<!-- Uploaded to: SVG Repo, www.svgrepo.com, Generator: SVG Repo Mixer Tools -->
<svg height="800px" width="800px" version="1.1" id="Layer_1" xmlns="http://www.w3.org/2000/svg" xmlns:xlink="http://www.w3.org/1999/xlink" 
	 viewBox="0 0 512 512" xml:space="preserve">
<path style="fill:#CFF09E;" d="M290.221,456.964c-14.872-8.103-24.126-23.685-24.126-40.622V285.623
	c8.349,3.521,17.523,5.47,27.153,5.47c19.592,0,37.292-8.063,49.983-21.048c-18.339-25.213-48.055-41.618-81.618-41.618h-25.059
	h-60.478h-25.059c-55.714,0-100.88,45.165-100.88,100.88v167.85h312.353v-0.81L290.221,456.964z"/>
<path style="fill:#507C5C;" d="M461.862,270.781c-8.198,0-14.843,6.645-14.843,14.843v130.719c0,11.509-6.279,22.079-16.386,27.588
	l-66.655,36.32l-66.654-36.32c-10.107-5.507-16.386-16.078-16.386-27.588V305.053c4.051,0.589,8.158,0.885,12.31,0.885
	c1.259,0,2.513-0.039,3.763-0.094c0.328-0.015,0.658-0.028,0.984-0.046c1.128-0.062,2.252-0.142,3.369-0.249
	c0.534-0.05,1.064-0.117,1.596-0.177c0.549-0.064,1.098-0.131,1.645-0.205c15.087-2.005,29.195-7.996,41.132-17.463
	c0.364-0.286,0.727-0.573,1.087-0.867c0.429-0.352,0.856-0.705,1.279-1.066c0.855-0.726,1.697-1.467,2.523-2.226
	c0.138-0.126,0.272-0.257,0.408-0.384c0.948-0.883,1.878-1.787,2.786-2.713c0.009-0.009,0.016-0.016,0.025-0.025
	c0.001-0.001,0.004-0.004,0.006-0.006c3.743-3.827,7.146-8.021,10.138-12.552c7.169,10.807,16.809,19.988,28.021,26.541
	c7.077,4.137,16.169,1.752,20.304-5.326c4.137-7.077,1.752-16.169-5.326-20.304c-9.976-5.83-18.035-14.851-22.691-25.401
	c-2.373-5.379-7.699-8.85-13.579-8.85h-13.485c-5.879,0-11.205,3.47-13.579,8.85c-0.445,1.011-0.94,1.989-1.44,2.963
	c-12.869-12.47-28.449-21.765-45.388-27.206c16.754-15.949,27.227-38.438,27.227-63.341V87.501c0-8.198-6.645-14.843-14.843-14.843
	s-14.843,6.645-14.843,14.843v68.287c0,31.63-25.535,57.395-57.071,57.795h-61.963c-31.536-0.401-57.071-26.166-57.071-57.795
	V87.501c0-31.879,25.936-57.815,57.815-57.815h60.478c8.198,0,14.843-6.645,14.843-14.843S244.753,0,236.555,0h-60.478
	c-48.248,0-87.501,39.253-87.501,87.501v68.287c0,24.883,10.459,47.358,27.19,63.305c-46.621,14.947-80.47,58.693-80.47,110.213
	v167.85c0,8.198,6.645,14.843,14.843,14.843h312.353c0.278,0,0.549-0.027,0.824-0.042c0.221,0.01,0.441,0.042,0.662,0.042
	c2.443,0,4.888-0.603,7.103-1.809l73.757-40.191c19.657-10.711,31.867-31.27,31.867-53.654V285.626
	C476.706,277.426,470.06,270.781,461.862,270.781z M64.984,482.313V329.307c0-47.441,38.596-86.036,86.036-86.036h24.315
	c0.248,0.001,0.494,0.019,0.742,0.019h15.395v144.167c0,8.198,6.645,14.843,14.843,14.843s14.843-6.645,14.843-14.843V243.29h15.395
	c0.249,0,0.494-0.016,0.742-0.019h24.315c22.688,0,44.419,9.089,60.403,24.818c-6.228,3.821-13.205,6.435-20.58,7.545
	c-0.049,0.007-0.096,0.018-0.147,0.025c-1.149,0.169-2.31,0.288-3.475,0.384c-0.189,0.015-0.374,0.045-0.563,0.058
	c-1.238,0.091-2.485,0.132-3.738,0.138c-0.089,0-0.178,0.009-0.267,0.009c-7.422,0-14.616-1.447-21.383-4.302
	c-4.582-1.934-9.829-1.443-13.976,1.308c-4.144,2.75-6.636,7.393-6.636,12.369v130.719c0,6.996,1.192,13.812,3.432,20.206
	c4.927,14.067,14.921,26.086,28.435,33.449l22.599,12.314H64.984V482.313z"/>
<polyline style="fill:#CFF09E;" points="337.64,377.225 362.494,391.08 404.435,353.972 "/>
<path style="fill:#507C5C;" d="M362.489,405.924c-2.474,0-4.961-0.617-7.223-1.878l-24.854-13.853
	c-7.16-3.991-9.73-13.032-5.738-20.193c3.991-7.162,13.031-9.731,20.193-5.738l15.669,8.734l34.064-30.139
	c6.138-5.434,15.52-4.86,20.953,1.281c5.433,6.139,4.858,15.52-1.281,20.953l-41.941,37.108
	C369.55,404.656,366.035,405.924,362.489,405.924z"/>
</svg>