<?xml version="1.0" encoding="iso-8859-1"?>
<!-- Generator: Adobe Illustrator 19.0.0, SVG Export Plug-In . SVG Version: 6.00 Build 0)  -->
<svg version="1.1" id="Layer_1" xmlns="http://www.w3.org/2000/svg" xmlns:xlink="http://www.w3.org/1999/xlink" x="0px" y="0px"
	 viewBox="0 0 512 512" style="enable-background:new 0 0 512 512;" xml:space="preserve">
<g>
	<path style="fill:#D5D5D5;" d="M360.088,73.143v28.132l16.879-11.253C376.967,80.7,369.41,73.143,360.088,73.143z"/>
	<path style="fill:#D5D5D5;" d="M135.033,90.022l28.132,11.253l-11.253-28.132C142.59,73.143,135.033,80.7,135.033,90.022z"/>
	<rect x="343.209" y="33.758" style="fill:#D5D5D5;" width="16.879" height="78.769"/>
	<rect x="151.912" y="33.758" style="fill:#D5D5D5;" width="16.879" height="78.769"/>
</g>
<path style="fill:#A77C77;" d="M0,216.615v33.758c0,18.567,15.191,56.264,33.758,56.264l444.484,137.846L512,410.725v-194.11H0z"/>
<path style="fill:#BA9894;" d="M33.758,284.132C15.191,284.132,0,268.941,0,250.374v160.352L101.275,512h309.451l67.517-67.516
	V284.132H33.758z"/>
<path style="fill:#81433D;" d="M478.242,90.022h-33.758v160.352h33.758c18.567,0,33.758-15.191,33.758-33.758V123.78
	C512,105.213,496.809,90.022,478.242,90.022z"/>
<path style="fill:#945F5A;" d="M478.242,216.615V123.78c0-18.567-15.191-33.758-33.758-33.758H33.758
	C15.191,90.022,0,105.213,0,123.78v92.835c0,18.567,15.191,33.758,33.758,33.758h410.725
	C463.051,250.374,478.242,235.182,478.242,216.615z"/>
<path style="fill:#61322E;" d="M326.33,0h-33.758l33.758,33.758h33.758C360.088,15.191,344.897,0,326.33,0z"/>
<path style="fill:#81433D;" d="M292.571,0H185.67c-18.567,0-33.758,15.191-33.758,33.758H326.33C326.33,15.191,311.138,0,292.571,0z
	"/>
<path style="fill:#61322E;" d="M478.242,416.553L444.484,512h33.758C496.809,512,512,496.809,512,478.242v-67.517
	C500.177,410.725,488.814,412.786,478.242,416.553z"/>
<g>
	<path style="fill:#81433D;" d="M478.242,478.242v-61.689c-39.233,13.983-67.517,51.569-67.517,95.447h33.758
		C463.051,512,478.242,496.809,478.242,478.242z"/>
	<path style="fill:#81433D;" d="M0,410.725v67.517C0,496.809,15.191,512,33.758,512h67.516
		C101.275,456.299,55.701,410.725,0,410.725z"/>
</g>
<g>
	<polygon style="fill:#EAEAEA;" points="272.879,351.648 272.879,282.005 239.121,282.005 239.121,351.648 205.363,351.648 
		205.363,385.407 239.121,385.407 239.121,419.165 272.879,419.165 272.879,385.407 306.637,385.407 306.637,351.648 	"/>
	<path style="fill:#EAEAEA;" d="M256,182.857l-27.007,67.516L256,317.89c37.288,0,67.517-30.228,67.517-67.516
		S293.288,182.857,256,182.857z"/>
</g>
<path style="fill:#FFFFFF;" d="M188.484,250.374c0,37.288,30.228,67.516,67.516,67.516V182.857
	C218.712,182.857,188.484,213.085,188.484,250.374z"/>
<g>
	<circle style="fill:#81433D;" cx="42.198" cy="132.22" r="8.44"/>
	<circle style="fill:#81433D;" cx="75.956" cy="165.978" r="8.44"/>
</g>
<circle style="fill:#A77C77;" cx="436.044" cy="385.407" r="8.44"/>
<path style="fill:#959595;" d="M256,275.692c-4.662,0-8.44-3.779-8.44-8.44v-33.758c0-4.661,3.778-8.44,8.44-8.44
	c4.662,0,8.44,3.779,8.44,8.44v33.758C264.44,271.914,260.662,275.692,256,275.692z"/>
<g>
</g>
<g>
</g>
<g>
</g>
<g>
</g>
<g>
</g>
<g>
</g>
<g>
</g>
<g>
</g>
<g>
</g>
<g>
</g>
<g>
</g>
<g>
</g>
<g>
</g>
<g>
</g>
<g>
</g>
</svg>
