<svg width="113.469px" height="113.469px" viewBox="-23.39 0 113.469 113.469" xmlns="http://www.w3.org/2000/svg">
  <g id="Group_2287" data-name="Group 2287" transform="translate(-812.898 -1467.5)">
    <g id="Group_2285" data-name="Group 2285">
      <g id="Group_2104" data-name="Group 2104">
        <g id="Group_2103" data-name="Group 2103">
          <g id="Group_2102" data-name="Group 2102">
            <g id="Group_2101" data-name="Group 2101">
              <g id="Group_2100" data-name="Group 2100">
                <path id="Path_1118" data-name="Path 1118" d="M830.656,1479.923v-.334S830.651,1479.714,830.656,1479.923Z" fill="none"/>
              </g>
            </g>
          </g>
        </g>
      </g>
      <g id="Group_2109" data-name="Group 2109">
        <g id="Group_2108" data-name="Group 2108">
          <g id="Group_2107" data-name="Group 2107">
            <g id="Group_2106" data-name="Group 2106">
              <g id="Group_2105" data-name="Group 2105">
                <path id="Path_1119" data-name="Path 1119" d="M829.239,1483.841l1.417-2.835v-1.083c-.005-.209,0-.334,0-.334s-5.669.613-5.669-2.835v1.417s-1.418.969-1.418,5.67a5.7,5.7,0,0,0,4.252,5.669,3.1,3.1,0,0,1,0-2.835v-1.417Z" fill="#b3b3b3"/>
              </g>
            </g>
          </g>
        </g>
      </g>
      <g id="Group_2114" data-name="Group 2114">
        <g id="Group_2113" data-name="Group 2113">
          <g id="Group_2112" data-name="Group 2112">
            <g id="Group_2111" data-name="Group 2111">
              <g id="Group_2110" data-name="Group 2110">
                <path id="Path_1120" data-name="Path 1120" d="M830.656,1479.923v1.083l-1.417,2.835-1.418,1.417v1.417a5.644,5.644,0,0,0,2.822.64,7.554,7.554,0,0,0,2.848-.64A10.138,10.138,0,0,1,830.656,1479.923Z" fill="#b3b3b3"/>
              </g>
            </g>
          </g>
        </g>
      </g>
      <g id="Group_2119" data-name="Group 2119">
        <g id="Group_2118" data-name="Group 2118">
          <g id="Group_2117" data-name="Group 2117">
            <g id="Group_2116" data-name="Group 2116">
              <g id="Group_2115" data-name="Group 2115">
                <path id="Path_1121" data-name="Path 1121" d="M830.656,1479.589c-1.408-3.385-5.669-2.835-5.669-2.835C824.987,1480.2,830.656,1479.589,830.656,1479.589Z" fill="#b3b3b3"/>
              </g>
            </g>
          </g>
        </g>
      </g>
      <g id="Group_2124" data-name="Group 2124">
        <g id="Group_2123" data-name="Group 2123">
          <g id="Group_2122" data-name="Group 2122">
            <g id="Group_2121" data-name="Group 2121">
              <g id="Group_2120" data-name="Group 2120">
                <path id="Path_1122" data-name="Path 1122" d="M843.412,1473.919l1.4-4.21a23.954,23.954,0,0,0-8.491-1.459c-8.405,0-11.338,5.057-11.338,8.5,0,0,4.261-.55,5.669,2.835C830.656,1479.589,841.051,1481.657,843.412,1473.919Z" fill="#524da1"/>
              </g>
            </g>
          </g>
        </g>
      </g>
      <g id="Group_2129" data-name="Group 2129">
        <g id="Group_2128" data-name="Group 2128">
          <g id="Group_2127" data-name="Group 2127">
            <g id="Group_2126" data-name="Group 2126">
              <g id="Group_2125" data-name="Group 2125">
                <path id="Path_1123" data-name="Path 1123" d="M859,1485.258l.092-.124c-3.785-9.113-9.082-13.466-14.278-15.425l-1.4,4.21c-2.361,7.738-12.756,5.67-12.756,5.67v.334a10.138,10.138,0,0,0,2.835,6.752s4.727,4.252,9.921,4.252S855.774,1489.626,859,1485.258Z" fill="#94d056"/>
              </g>
            </g>
          </g>
        </g>
      </g>
      <g id="Group_2134" data-name="Group 2134">
        <g id="Group_2133" data-name="Group 2133">
          <g id="Group_2132" data-name="Group 2132">
            <g id="Group_2131" data-name="Group 2131">
              <g id="Group_2130" data-name="Group 2130">
                <path id="Path_1124" data-name="Path 1124" d="M829.239,1495.112a24.072,24.072,0,0,0,32.609-1.3l-.011-.047a56.745,56.745,0,0,0-2.743-8.628l-.092.124c-3.228,4.368-10.4,5.669-15.59,5.669s-9.921-4.252-9.921-4.252a7.554,7.554,0,0,1-2.848.64,15.749,15.749,0,0,1-1.4,6.447h0Z" fill="#524da1"/>
              </g>
            </g>
          </g>
        </g>
      </g>
      <g id="Group_2139" data-name="Group 2139">
        <g id="Group_2138" data-name="Group 2138">
          <g id="Group_2137" data-name="Group 2137">
            <g id="Group_2136" data-name="Group 2136">
              <g id="Group_2135" data-name="Group 2135">
                <path id="Path_1125" data-name="Path 1125" d="M836.325,1563.211l2.96,9.62a2.835,2.835,0,0,0,5.419,0l1.216-3.951,1.744-5.669a12.714,12.714,0,0,1-11.339,0Z" fill="#5cb755"/>
              </g>
            </g>
          </g>
        </g>
      </g>
      <g id="Group_2144" data-name="Group 2144">
        <g id="Group_2143" data-name="Group 2143">
          <g id="Group_2142" data-name="Group 2142">
            <g id="Group_2141" data-name="Group 2141">
              <g id="Group_2140" data-name="Group 2140">
                <path id="Path_1126" data-name="Path 1126" d="M829.239,1495.862a.749.749,0,0,1-.487-.179l-.138-.117c-.1-.087-.208-.175-.31-.266a.747.747,0,0,1-.192-.85c.144-.343.292-.681.45-1.011a.75.75,0,0,1,1.427.323v1.35a.751.751,0,0,1-.75.75Z" fill="#7a7a7a"/>
              </g>
            </g>
          </g>
        </g>
      </g>
      <g id="Group_2149" data-name="Group 2149">
        <g id="Group_2148" data-name="Group 2148">
          <g id="Group_2147" data-name="Group 2147">
            <g id="Group_2146" data-name="Group 2146">
              <g id="Group_2145" data-name="Group 2145">
                <path id="Path_1127" data-name="Path 1127" d="M828.8,1494.74c.139-.331.283-.658.436-.978,0,0-7.087,4.036-7.087,18.425a60.621,60.621,0,0,0,.652,8.057c2.319-3.3,3.15-7.614,3.444-10.518C826.292,1504.27,827,1499.029,828.8,1494.74Z" fill="#5cb755"/>
              </g>
            </g>
          </g>
        </g>
      </g>
      <g id="Group_2154" data-name="Group 2154">
        <g id="Group_2153" data-name="Group 2153">
          <g id="Group_2152" data-name="Group 2152">
            <g id="Group_2151" data-name="Group 2151">
              <g id="Group_2150" data-name="Group 2150">
                <path id="Path_1128" data-name="Path 1128" d="M861.848,1493.809a54.239,54.239,0,0,1,1.245,14.126h.161s.926,5.875,3.948,9.916c.2-2.787.3-5.61.3-8.5C867.506,1498.19,861.848,1493.809,861.848,1493.809Z" fill="#5cb755"/>
              </g>
            </g>
          </g>
        </g>
      </g>
      <g id="Group_2159" data-name="Group 2159">
        <g id="Group_2158" data-name="Group 2158">
          <g id="Group_2157" data-name="Group 2157">
            <g id="Group_2156" data-name="Group 2156">
              <g id="Group_2155" data-name="Group 2155">
                <path id="Path_1129" data-name="Path 1129" d="M861.832,1519.9l.006-.039Z" fill="none"/>
              </g>
            </g>
          </g>
        </g>
      </g>
      <g id="Group_2164" data-name="Group 2164">
        <g id="Group_2163" data-name="Group 2163">
          <g id="Group_2162" data-name="Group 2162">
            <g id="Group_2161" data-name="Group 2161">
              <g id="Group_2160" data-name="Group 2160">
                <path id="Path_1130" data-name="Path 1130" d="M861.22,1523.166l.017-.085Z" fill="none"/>
              </g>
            </g>
          </g>
        </g>
      </g>
      <g id="Group_2169" data-name="Group 2169">
        <g id="Group_2168" data-name="Group 2168">
          <g id="Group_2167" data-name="Group 2167">
            <g id="Group_2166" data-name="Group 2166">
              <g id="Group_2165" data-name="Group 2165">
                <path id="Path_1131" data-name="Path 1131" d="M836.325,1563.211l2.96,9.62a2.835,2.835,0,0,0,5.419,0l1.216-3.951,1.744-5.669a12.714,12.714,0,0,1-11.339,0Z" fill="#5cb755"/>
              </g>
            </g>
          </g>
        </g>
      </g>
      <g id="Group_2174" data-name="Group 2174">
        <g id="Group_2173" data-name="Group 2173">
          <g id="Group_2172" data-name="Group 2172">
            <g id="Group_2171" data-name="Group 2171">
              <g id="Group_2170" data-name="Group 2170">
                <path id="Path_1132" data-name="Path 1132" d="M831.937,1544.349l0-.006Z" fill="none"/>
              </g>
            </g>
          </g>
        </g>
      </g>
      <g id="Group_2179" data-name="Group 2179">
        <g id="Group_2178" data-name="Group 2178">
          <g id="Group_2177" data-name="Group 2177">
            <g id="Group_2176" data-name="Group 2176">
              <g id="Group_2175" data-name="Group 2175">
                <path id="Path_1133" data-name="Path 1133" d="M832.064,1544.756l-.01-.031Z" fill="none"/>
              </g>
            </g>
          </g>
        </g>
      </g>
      <g id="Group_2184" data-name="Group 2184">
        <g id="Group_2183" data-name="Group 2183">
          <g id="Group_2182" data-name="Group 2182">
            <g id="Group_2181" data-name="Group 2181">
              <g id="Group_2180" data-name="Group 2180">
                <path id="Path_1134" data-name="Path 1134" d="M850.131,1556.8l-2.467,6.414h0l-1.744,5.669-1.216,3.951a2.835,2.835,0,0,1-5.419,0l-2.96-9.62-.8-3.486-1.37-5.936c-.129,1.133-.436,4.087-.581,7.627-.326,7.928.16,18.8,5.279,18.8a3.467,3.467,0,0,1,6.291,0c3.6,0,4.908-5.386,5.254-11.339A90.449,90.449,0,0,0,850.131,1556.8Z" fill="#80cdbb"/>
              </g>
            </g>
          </g>
        </g>
      </g>
      <g id="Group_2189" data-name="Group 2189">
        <g id="Group_2188" data-name="Group 2188">
          <g id="Group_2187" data-name="Group 2187">
            <g id="Group_2186" data-name="Group 2186">
              <g id="Group_2185" data-name="Group 2185">
                <path id="Path_1135" data-name="Path 1135" d="M847.615,1548.288a7.094,7.094,0,0,0-.654-.478h0c-.1-.064-.2-.12-.3-.178s-.217-.122-.327-.18a7.193,7.193,0,0,0-1.388-.541c-.169-.047-.337-.1-.508-.132h0c-.2-.039-.4-.057-.6-.079l-10.149,5.074.465,2.015,1.37,5.936.8,3.486a12.714,12.714,0,0,0,11.339,0h0l2.467-6.414,1.894-4.925h-.109Z" fill="#f95b67"/>
              </g>
            </g>
          </g>
        </g>
      </g>
      <g id="Group_2194" data-name="Group 2194">
        <g id="Group_2193" data-name="Group 2193">
          <g id="Group_2192" data-name="Group 2192">
            <g id="Group_2191" data-name="Group 2191">
              <g id="Group_2190" data-name="Group 2190">
                <path id="Path_1136" data-name="Path 1136" d="M843.835,1546.7c.2.022.4.04.6.079.171.034.339.086.508.132.089.025.181.042.27.071.047.014.094.03.141.046a7.133,7.133,0,0,1,.74.294h0c.081.039.156.088.234.129.111.057.219.117.327.18.046.028.094.049.14.077l.158.1h0a7,7,0,0,1,.654.477l4.3,3.584h.109l2.725-7.086.014-.034.012-.027c.014-.033.033-.08.057-.139l.013-.032c.025-.059.054-.13.086-.211l.015-.036c.037-.093.081-.2.128-.32l.023-.058c.1-.255.222-.564.36-.924l.022-.058q.218-.567.484-1.291l.012-.033q.133-.365.278-.766l.014-.038.144-.407Z" fill="#94d056"/>
              </g>
            </g>
          </g>
        </g>
      </g>
      <g id="Group_2199" data-name="Group 2199">
        <g id="Group_2198" data-name="Group 2198">
          <g id="Group_2197" data-name="Group 2197">
            <g id="Group_2196" data-name="Group 2196">
              <g id="Group_2195" data-name="Group 2195">
                <path id="Path_1137" data-name="Path 1137" d="M826.258,1511.478c.244,14.556,4.819,30.075,5.677,32.865l0,.006c.056.183.095.308.117.376l.01.031.009.03.147.635,26.861-13.431q.184-.657.368-1.34l.014-.049c.371-1.382.737-2.834,1.085-4.341l.013-.053q.342-1.488.659-3.041l.017-.085q.316-1.562.595-3.177l.006-.039q.138-.805.264-1.622l.01-.061q.249-1.622.447-3.279l.015-.125q.192-1.641.323-3.3l.009-.115q.064-.828.11-1.659l0-.08q.047-.84.073-1.681a54.269,54.269,0,0,0-1.245-14.13,24.072,24.072,0,0,1-32.609,1.3c-.146-.124-.294-.245-.436-.372-1.8,4.29-2.511,9.531-2.555,14.989,0,.005,0,.224,0,.624C826.251,1510.728,826.252,1511.1,826.258,1511.478Z" fill="#94d056"/>
              </g>
            </g>
          </g>
        </g>
      </g>
      <g id="Group_2204" data-name="Group 2204">
        <g id="Group_2203" data-name="Group 2203">
          <g id="Group_2202" data-name="Group 2202">
            <g id="Group_2201" data-name="Group 2201">
              <g id="Group_2200" data-name="Group 2200">
                <path id="Path_1138" data-name="Path 1138" d="M826.248,1509.729v0c-.294,2.9-1.125,7.216-3.444,10.518a189.686,189.686,0,0,0,4.9,22.683c-1.171-12.5-1.4-26.37-1.444-31.316Q826.241,1510.668,826.248,1509.729Z" fill="#80cdbb"/>
              </g>
            </g>
          </g>
        </g>
      </g>
      <g id="Group_2209" data-name="Group 2209">
        <g id="Group_2208" data-name="Group 2208">
          <g id="Group_2207" data-name="Group 2207">
            <g id="Group_2206" data-name="Group 2206">
              <g id="Group_2205" data-name="Group 2205">
                <path id="Path_1139" data-name="Path 1139" d="M833.686,1551.774l-2.941,1.471c1.01,3.17,1.98,5.969,2.825,8.171.145-3.54.452-6.494.581-7.627Z" fill="#5cb755"/>
              </g>
            </g>
          </g>
        </g>
      </g>
      <g id="Group_2214" data-name="Group 2214">
        <g id="Group_2213" data-name="Group 2213">
          <g id="Group_2212" data-name="Group 2212">
            <g id="Group_2211" data-name="Group 2211">
              <g id="Group_2210" data-name="Group 2210">
                <path id="Path_1140" data-name="Path 1140" d="M832.073,1544.786l-.009-.03-.01-.031c-.021-.067-.061-.193-.117-.376l0-.006c-.853-2.77-5.406-18.207-5.676-32.732.045,4.946.273,18.815,1.444,31.316.386,1.415.779,2.807,1.173,4.166l3.344-1.672Z" fill="#5cb755"/>
              </g>
            </g>
          </g>
        </g>
      </g>
      <g id="Group_2219" data-name="Group 2219">
        <g id="Group_2218" data-name="Group 2218">
          <g id="Group_2217" data-name="Group 2217">
            <g id="Group_2216" data-name="Group 2216">
              <g id="Group_2215" data-name="Group 2215">
                <path id="Path_1141" data-name="Path 1141" d="M831.358,1545.011l.714-.225-.715.222.711-.221-.718.2.013,0-.014,0a.75.75,0,0,1,1.429-.456l-.013,0,.014,0-.706.257Z" fill="#7a7a7a"/>
              </g>
            </g>
          </g>
        </g>
      </g>
      <g id="Group_2224" data-name="Group 2224">
        <g id="Group_2223" data-name="Group 2223">
          <g id="Group_2222" data-name="Group 2222">
            <g id="Group_2221" data-name="Group 2221">
              <g id="Group_2220" data-name="Group 2220">
                <path id="Path_1142" data-name="Path 1142" d="M831.935,1545.093a.75.75,0,0,1-.717-.529h0l-.005-.017c-.918-2.984-5.433-18.371-5.7-32.922v-.138a.75.75,0,0,1,.739-.759h.011a.75.75,0,0,1,.75.737c.242,14.407,4.744,29.732,5.644,32.658a.749.749,0,0,1-.717.97Z" fill="#7a7a7a"/>
              </g>
            </g>
          </g>
        </g>
      </g>
      <g id="Group_2229" data-name="Group 2229">
        <g id="Group_2228" data-name="Group 2228">
          <g id="Group_2227" data-name="Group 2227">
            <g id="Group_2226" data-name="Group 2226">
              <g id="Group_2225" data-name="Group 2225">
                <path id="Path_1143" data-name="Path 1143" d="M832.054,1545.475a.752.752,0,0,1-.715-.522l-.119-.384a.731.731,0,0,1-.033-.22.75.75,0,0,1,1.467-.221l.115.37a.751.751,0,0,1-.715.977Z" fill="#7a7a7a"/>
              </g>
            </g>
          </g>
        </g>
      </g>
      <g id="Group_2234" data-name="Group 2234">
        <g id="Group_2233" data-name="Group 2233">
          <g id="Group_2232" data-name="Group 2232">
            <g id="Group_2231" data-name="Group 2231">
              <g id="Group_2230" data-name="Group 2230">
                <path id="Path_1144" data-name="Path 1144" d="M859.464,1550.928a.769.769,0,0,1-.235-.038.751.751,0,0,1-.492-.9A101.35,101.35,0,0,0,861,1537.652a.75.75,0,0,1,.409-.576l2.3-1.15a.75.75,0,0,1,1.06.865,116.769,116.769,0,0,1-4.607,13.667A.749.749,0,0,1,859.464,1550.928Zm2.971-12.689q-.155,1.188-.324,2.332.4-1.277.76-2.55Z" fill="#7a7a7a"/>
              </g>
            </g>
          </g>
        </g>
      </g>
      <g id="Group_2239" data-name="Group 2239">
        <g id="Group_2238" data-name="Group 2238">
          <g id="Group_2237" data-name="Group 2237">
            <g id="Group_2236" data-name="Group 2236">
              <g id="Group_2235" data-name="Group 2235">
                <path id="Path_1145" data-name="Path 1145" d="M862.518,1530.272l3.318-1.659a101.163,101.163,0,0,0,1.366-10.762c-3.022-4.041-3.948-9.916-3.948-9.916S863.5,1518.323,862.518,1530.272Z" fill="#80cdbb"/>
              </g>
            </g>
          </g>
        </g>
      </g>
      <g id="Group_2244" data-name="Group 2244">
        <g id="Group_2243" data-name="Group 2243">
          <g id="Group_2242" data-name="Group 2242">
            <g id="Group_2241" data-name="Group 2241">
              <g id="Group_2240" data-name="Group 2240">
                <path id="Path_1146" data-name="Path 1146" d="M856.413,1540.411c-.049.14-.1.274-.145.408l-.014.038q-.144.4-.278.766l-.012.033q-.266.723-.484,1.291l-.022.058c-.138.36-.259.669-.36.924l-.023.058c-.048.12-.09.227-.128.32l-.015.036c-.032.081-.061.152-.086.211l-.013.032c-.025.062-.043.106-.057.139l-.012.027-.014.034-2.725,7.086-1.894,4.925a90.449,90.449,0,0,1,.263,12.083h.105a181.242,181.242,0,0,0,8.965-18.7,102.547,102.547,0,0,0,2.278-12.431Z" fill="#5cb755"/>
              </g>
            </g>
          </g>
        </g>
      </g>
      <g id="Group_2249" data-name="Group 2249">
        <g id="Group_2248" data-name="Group 2248">
          <g id="Group_2247" data-name="Group 2247">
            <g id="Group_2246" data-name="Group 2246">
              <g id="Group_2245" data-name="Group 2245">
                <path id="Path_1147" data-name="Path 1147" d="M863.016,1509.7q-.047.831-.11,1.659l-.009.115q-.129,1.662-.323,3.3l-.015.125q-.2,1.656-.447,3.279l-.01.061q-.126.816-.264,1.622l-.006.039q-.277,1.614-.595,3.177l-.017.085q-.315,1.553-.659,3.041l-.013.053c-.348,1.508-.714,2.959-1.085,4.341l-.014.049c-.122.454-.245.9-.367,1.34l3.436-1.718c.985-11.949.736-22.337.736-22.337h-.161v0q-.027.842-.073,1.681Z" fill="#5cb755"/>
              </g>
            </g>
          </g>
        </g>
      </g>
      <g id="Group_2254" data-name="Group 2254">
        <g id="Group_2253" data-name="Group 2253">
          <g id="Group_2252" data-name="Group 2252">
            <g id="Group_2251" data-name="Group 2251">
              <g id="Group_2250" data-name="Group 2250">
                <path id="Path_1148" data-name="Path 1148" d="M813.648,1554.707l65.2-32.6v7.087l-65.2,32.6Z" fill="#be8a66"/>
              </g>
            </g>
          </g>
        </g>
      </g>
      <g id="Group_2259" data-name="Group 2259">
        <g id="Group_2258" data-name="Group 2258">
          <g id="Group_2257" data-name="Group 2257">
            <g id="Group_2256" data-name="Group 2256">
              <g id="Group_2255" data-name="Group 2255">
                <path id="Path_1149" data-name="Path 1149" d="M830.656,1479.923v-.334S830.651,1479.714,830.656,1479.923Z" fill="none"/>
              </g>
            </g>
          </g>
        </g>
      </g>
      <g id="Group_2264" data-name="Group 2264">
        <g id="Group_2263" data-name="Group 2263">
          <g id="Group_2262" data-name="Group 2262">
            <g id="Group_2261" data-name="Group 2261">
              <g id="Group_2260" data-name="Group 2260">
                <path id="Path_1150" data-name="Path 1150" d="M861.832,1519.9l.006-.039Z" fill="none"/>
              </g>
            </g>
          </g>
        </g>
      </g>
      <g id="Group_2269" data-name="Group 2269">
        <g id="Group_2268" data-name="Group 2268">
          <g id="Group_2267" data-name="Group 2267">
            <g id="Group_2266" data-name="Group 2266">
              <g id="Group_2265" data-name="Group 2265">
                <path id="Path_1151" data-name="Path 1151" d="M861.22,1523.166l.017-.085Z" fill="none"/>
              </g>
            </g>
          </g>
        </g>
      </g>
      <g id="Group_2274" data-name="Group 2274">
        <g id="Group_2273" data-name="Group 2273">
          <g id="Group_2272" data-name="Group 2272">
            <g id="Group_2271" data-name="Group 2271">
              <g id="Group_2270" data-name="Group 2270">
                <path id="Path_1152" data-name="Path 1152" d="M836.325,1563.211l2.96,9.62a2.835,2.835,0,0,0,5.419,0l1.216-3.951,1.744-5.669a12.714,12.714,0,0,1-11.339,0Z" fill="none"/>
              </g>
            </g>
          </g>
        </g>
      </g>
      <g id="Group_2279" data-name="Group 2279">
        <g id="Group_2278" data-name="Group 2278">
          <g id="Group_2277" data-name="Group 2277">
            <g id="Group_2276" data-name="Group 2276">
              <g id="Group_2275" data-name="Group 2275">
                <path id="Path_1153" data-name="Path 1153" d="M831.937,1544.349l0-.006Z" fill="none"/>
              </g>
            </g>
          </g>
        </g>
      </g>
      <g id="Group_2284" data-name="Group 2284">
        <g id="Group_2283" data-name="Group 2283">
          <g id="Group_2282" data-name="Group 2282">
            <g id="Group_2281" data-name="Group 2281">
              <g id="Group_2280" data-name="Group 2280">
                <path id="Path_1154" data-name="Path 1154" d="M832.064,1544.756l-.01-.031Z" fill="none"/>
              </g>
            </g>
          </g>
        </g>
      </g>
    </g>
    <g id="Group_2286" data-name="Group 2286">
      <path id="Path_1155" data-name="Path 1155" d="M836.325,1477.5a2.168,2.168,0,1,0-2.167-2.167A2.17,2.17,0,0,0,836.325,1477.5Z" fill="#1a1a1a"/>
      <path id="Path_1156" data-name="Path 1156" d="M878.51,1528.524l-16.521,8.26-.582.292-3.343,1.671-.721.36a10.688,10.688,0,0,0-1.478-4.67l3.551-1.776,19.764-9.882a.75.75,0,1,0-.67-1.341l-11.689,5.844c.519-3.1.9-6.186,1.129-9.376.2-2.777.306-5.655.306-8.553,0-10.351-4.692-15.041-5.739-15.959a57.538,57.538,0,0,0-2.73-8.547c-3.365-8.1-8.313-13.429-14.707-15.84a24.734,24.734,0,0,0-8.755-1.507c-4.964,0-7.818,1.722-9.338,3.166a8.514,8.514,0,0,0-2.75,6.088v1.1c-.527.6-1.418,2.187-1.418,5.986a6.419,6.419,0,0,0,4.836,6.4.719.719,0,0,0,.166.019.749.749,0,0,0,.661-1.1,2.221,2.221,0,0,1-.219-1.471,6.369,6.369,0,0,0,1.582.345,15.647,15.647,0,0,1-1.191,5.216c-1.294.862-7.252,5.566-7.252,18.941a61.44,61.44,0,0,0,.659,8.16,192.511,192.511,0,0,0,4.919,22.777c.322,1.181.663,2.381,1.006,3.575l-14.673,7.337a.75.75,0,0,0,.336,1.421.759.759,0,0,0,.335-.079l15.228-7.614,3.343-1.672,5.8-2.9a9.3,9.3,0,0,1,.968,4.43,1.244,1.244,0,0,0,.091.45l-6.067,3.033h0l-1.246.622-18.792,9.4a.75.75,0,1,0,.671,1.341l16.317-8.158c.884,2.735,1.747,5.223,2.514,7.233-.377,9.517.647,15.612,3.046,18.112a10.3,10.3,0,0,1,9.279,1.318c3.465,0,5.473-3.938,5.977-11.688.011-.017.031-.025.04-.042a181.059,181.059,0,0,0,9-18.781h0a117.15,117.15,0,0,0,4.514-13.337l14.507-7.254a.75.75,0,1,0-.67-1.342Zm-29.079,28-2.357,6.126a11.873,11.873,0,0,1-10.1.028l-2.091-9.062-.332-1.439,9.419-4.709c.109.012.219.022.327.043s.214.052.32.082l.129.036c.048.014.1.025.143.037s.071.016.1.026l.127.042a6.389,6.389,0,0,1,.662.263l.013.006c.025.012.049.027.073.041.04.023.08.046.128.071.1.051.2.1.284.157.034.02.069.039.129.07l.143.092a6.21,6.21,0,0,1,.585.427l3.971,3.308Zm-11.915,8a13.481,13.481,0,0,0,8.957,0l-2.486,8.081a2.084,2.084,0,0,1-3.985,0Zm14.158-13.836-3.579-2.983a7.672,7.672,0,0,0-.724-.53l-.175-.112c-.039-.024-.079-.045-.155-.086-.12-.069-.24-.136-.354-.2l-.068-.038c-.065-.038-.13-.074-.18-.1l-.032-.015c-.131-.061-.269-.12-.416-.177l9.073-4.537-.025.068c-.091.244-.179.477-.26.689l-.021.056c-.079.206-.151.389-.217.56-.05.126-.1.248-.14.356h0l-.33.812-.02.051ZM838.4,1539.472a1.25,1.25,0,1,0-1.32,2.123,2.889,2.889,0,0,1,.4.356l-4.764,2.382-.038-.121-.028-.09c-.055-.179-.124-.406-.2-.676l0-.011-.023-.076c-1.26-4.234-5.186-18.454-5.413-31.883-.01-.582-.015-1.163-.01-1.741v-.038q.009-1.05.052-2.057c.01-.227.026-.445.038-.67.025-.451.049-.9.083-1.339.021-.256.048-.5.071-.756.037-.392.074-.785.119-1.166.031-.26.067-.513.1-.768.049-.359.1-.716.156-1.064.041-.255.087-.5.132-.754.062-.334.125-.664.193-.988.052-.246.107-.488.163-.728q.11-.469.231-.923c.062-.234.125-.465.192-.692.086-.3.177-.584.27-.869.072-.218.143-.436.219-.647.034-.1.072-.187.107-.282.233.191.482.359.722.541.27.2.536.416.814.609.318.221.647.421.974.626.282.178.56.363.849.528.338.194.687.366,1.033.543.292.15.579.309.876.446.359.167.728.31,1.095.459.3.12.588.252.889.361.383.139.774.251,1.164.371.294.091.585.194.883.274.414.11.835.193,1.255.282.282.06.56.134.844.184.472.084.95.135,1.427.191.237.028.472.072.711.093q1.077.094,2.166.1c.729,0,1.453-.036,2.171-.1l.182-.013c.684-.064,1.36-.16,2.03-.279.091-.016.181-.03.271-.047.652-.123,1.3-.274,1.932-.448.1-.028.2-.054.3-.083q.942-.272,1.859-.615l.3-.114q.915-.359,1.8-.786c.086-.042.171-.086.256-.129.6-.3,1.188-.621,1.762-.97.061-.037.121-.077.181-.114.6-.369,1.178-.759,1.743-1.179l.055-.043q.855-.639,1.659-1.357c.014-.013.029-.023.044-.036.072.356.146.712.21,1.076.076.429.154.856.219,1.3.094.641.168,1.3.239,1.965.046.429.1.852.134,1.29.061.742.1,1.507.128,2.274.016.385.044.759.053,1.15q.038,1.675-.013,3.422c0,.053,0,.1,0,.156q-.026.832-.072,1.663h0l0,.042.237.025-.239.013q-.045.822-.109,1.643l-.009.114c-.083,1.067-.191,2.169-.322,3.287l-.013.112c-.127,1.072-.276,2.167-.444,3.253l.742.114-.751-.054c-.083.54-.171,1.077-.269,1.649-.177,1.036-.376,2.1-.59,3.158l-.017.081c-.2.993-.422,2.01-.655,3.02l-.012.055c-.328,1.418-.691,2.87-1.077,4.305l-.016.059c-.016.061-.033.12-.049.181-.077.281-.153.558-.229.833l-3.5,1.751a5.335,5.335,0,0,0-.952-.835,1.251,1.251,0,0,0-1.722.4,1.238,1.238,0,0,0,.3,1.622l-.563.281a5.671,5.671,0,0,0-.675-.76,1.25,1.25,0,1,0-1.661,1.869l.04.039-6.835,3.418a5.6,5.6,0,0,0-1.855-1.309,1.25,1.25,0,0,0-.882,2.339,2.356,2.356,0,0,1,.319.179l-.678.339A5.956,5.956,0,0,0,838.4,1539.472Zm-7.042-51.455c.079-.009.151-.023.227-.034.116-.017.234-.032.343-.052.086-.016.164-.034.245-.052.1-.021.2-.042.293-.065s.149-.04.223-.061.164-.045.238-.068.133-.043.2-.065.125-.041.18-.061l.046-.016.145.116.082.066c.1.083.219.172.348.269l.014.011c.133.1.28.208.438.321l.123.086c.12.085.244.171.376.26.063.043.129.086.195.129.121.08.245.16.374.242l.23.142q.2.123.409.244c.082.048.163.1.247.143.152.086.308.17.467.255.08.042.157.085.239.127.23.118.465.234.709.347l.04.019c.256.118.521.231.791.34.083.033.168.063.252.095.19.073.383.145.579.212.1.035.212.068.318.1.182.057.365.111.551.162.115.031.23.061.346.089q.281.069.565.124c.115.023.23.047.347.066.206.035.414.062.624.086.1.012.2.027.306.037.312.027.627.044.944.044.167,0,.36,0,.573-.006l.215-.006c.156,0,.312-.008.488-.016l.3-.015c.167-.009.333-.017.514-.029.121-.008.25-.019.377-.029.175-.013.349-.026.534-.043.141-.013.289-.03.436-.045.185-.02.369-.039.562-.063.155-.019.314-.041.473-.063.195-.027.389-.054.589-.085.168-.026.338-.056.509-.086.2-.035.4-.071.6-.11q.264-.053.531-.11c.205-.045.411-.091.618-.141.181-.043.361-.089.543-.136.209-.055.417-.113.626-.174.183-.054.364-.109.547-.167.208-.066.414-.137.621-.21.183-.065.365-.13.547-.2.206-.079.409-.165.613-.251.178-.076.356-.152.532-.234.2-.094.4-.2.6-.3.17-.088.341-.174.508-.268.2-.111.389-.232.581-.353.159-.1.319-.2.474-.3.193-.132.376-.276.561-.418.142-.11.288-.215.425-.331.19-.16.367-.335.546-.508.118-.114.243-.221.356-.341.016-.017.034-.031.05-.048a57.857,57.857,0,0,1,2.149,6.974c-.04.039-.08.077-.121.115q-.726.69-1.5,1.312c-.069.055-.139.108-.209.163-.524.41-1.061.8-1.614,1.16-.067.045-.136.086-.2.13-.562.359-1.136.7-1.724,1-.064.034-.131.065-.2.1-.6.306-1.206.588-1.827.841-.059.024-.118.045-.176.068-.633.251-1.276.477-1.93.672-.049.015-.1.027-.149.041-.666.193-1.341.36-2.025.494-.039.007-.077.012-.115.02-.7.132-1.406.236-2.12.305l-.065.005q-1.1.1-2.216.1-1.024,0-2.041-.09c-.228-.021-.453-.063-.68-.09-.447-.052-.894-.1-1.335-.178-.266-.047-.526-.118-.789-.174-.4-.085-.8-.162-1.189-.267-.28-.075-.553-.174-.83-.259-.367-.114-.737-.219-1.1-.351-.282-.1-.557-.228-.836-.342-.346-.141-.694-.274-1.033-.432-.28-.13-.551-.282-.826-.424-.325-.167-.654-.327-.971-.51-.273-.157-.535-.334-.8-.5-.307-.193-.617-.38-.915-.588-.261-.183-.51-.384-.764-.577s-.492-.37-.73-.567v-.808A16.676,16.676,0,0,0,831.361,1488.017Zm30.594,35.3.017-.087q.174-.858.334-1.719l0,.067c-.024.578-.052,1.169-.082,1.767l-.011.229q-.047.882-.1,1.791c-.006.093-.011.185-.017.278q-.054.906-.118,1.833c-.006.091-.012.181-.019.271q-.066.941-.142,1.9l-.011.147-1.556.778c.369-1.384.716-2.775,1.031-4.138l.013-.055C861.528,1525.35,861.751,1524.32,861.955,1523.317Zm1.415,5.69.006-.092q.08-1.056.147-2.09l.011-.17q.066-1.014.12-2c0-.065.007-.129.011-.193q.053-.975.1-1.919l.008-.19q.043-.933.077-1.829c0-.068.005-.135.008-.2q.033-.882.058-1.72l.006-.2q.024-.836.043-1.622l0-.176q.018-.791.03-1.525l0-.132q.012-.75.019-1.432v-.05c.014.036.032.074.046.11.119.308.248.618.384.932.024.054.046.107.07.162.151.34.314.68.486,1.02.037.074.075.147.114.22.181.348.37.694.574,1.034.011.019.024.037.035.056.2.322.4.636.621.945.03.042.055.087.085.129a99.459,99.459,0,0,1-1.268,10.039Zm3.386-19.654c0,2.066-.053,4.121-.158,6.136-.042-.078-.085-.155-.126-.233q-.075-.142-.147-.285-.123-.246-.238-.493c-.04-.086-.082-.171-.12-.257-.1-.213-.189-.426-.277-.637-.015-.036-.031-.072-.046-.107-.1-.246-.2-.49-.287-.731-.031-.084-.06-.167-.09-.25-.058-.158-.115-.316-.168-.471-.033-.095-.063-.188-.094-.282q-.07-.21-.135-.414c-.029-.092-.058-.184-.085-.275-.041-.132-.079-.261-.116-.388-.024-.085-.05-.171-.073-.253-.037-.134-.072-.262-.1-.388-.018-.065-.037-.134-.053-.2q-.07-.27-.128-.512c-.015-.062-.027-.116-.041-.175-.023-.1-.047-.2-.067-.288-.014-.065-.026-.123-.039-.182l-.046-.213c-.01-.051-.02-.1-.029-.144l-.033-.167-.019-.1-.021-.114-.01-.057-.01-.06a.766.766,0,0,0-.034-.095.8.8,0,0,0-.047-.13.592.592,0,0,0-.046-.076c-.005-.009-.005-.021-.012-.029.027-1.085.024-2.146,0-3.192-.006-.263-.023-.517-.032-.778q-.046-1.315-.146-2.589c-.027-.346-.059-.689-.092-1.03q-.12-1.212-.291-2.377c-.039-.27-.071-.545-.115-.811-.017-.106-.028-.219-.046-.324C864.7,1498.6,866.756,1502.754,866.756,1509.353Zm-8.526-24.337c-.071.09-.145.178-.22.265-.1.113-.193.227-.3.335s-.228.225-.345.335-.216.207-.331.3-.256.207-.387.309-.237.188-.361.276-.281.19-.424.283-.255.169-.388.249c-.15.09-.305.174-.46.259-.136.074-.27.15-.409.221-.161.082-.328.158-.493.235-.142.065-.281.133-.426.195-.17.074-.346.141-.521.21-.146.057-.291.118-.44.172-.179.065-.362.124-.543.185-.151.05-.3.1-.453.149-.185.057-.374.108-.562.161-.153.043-.306.089-.461.129-.192.049-.386.092-.58.137-.154.036-.307.075-.462.108-.2.042-.4.079-.6.117-.15.028-.3.06-.452.086-.2.035-.408.064-.613.095-.149.022-.3.048-.448.068-.207.028-.412.049-.618.073-.147.016-.294.036-.44.051-.213.021-.423.036-.635.052-.137.011-.276.025-.413.034-.23.015-.457.024-.684.034-.115.005-.231.013-.345.017q-.51.016-1.005.016a9.01,9.01,0,0,1-.9-.045c-4.385-.432-8.287-3.811-8.5-4a8.309,8.309,0,0,1-.725-.837c-.072-.095-.132-.191-.2-.287-.138-.2-.271-.394-.386-.592-.064-.109-.122-.219-.18-.328-.1-.188-.192-.375-.274-.561-.047-.1-.093-.21-.135-.315q-.117-.291-.208-.573c-.028-.084-.06-.171-.084-.254-.069-.229-.127-.451-.175-.663-.007-.031-.017-.066-.024-.1-.055-.252-.1-.489-.127-.7l-.005-.043c-.022-.157-.035-.294-.047-.425l.09.009c.121.013.248.025.387.037l.234.017c.116.009.235.016.361.023.1.006.194.01.3.014.124.005.251.008.382.01.111,0,.219.006.335.006h.053c.147,0,.3-.005.453-.008.171,0,.344-.012.522-.021.156-.008.312-.016.472-.028.137-.011.276-.026.415-.041s.275-.029.414-.047.3-.041.449-.065c.135-.022.271-.047.407-.073.155-.029.31-.057.466-.092.14-.031.279-.07.419-.106q.408-.105.813-.24c.138-.046.276-.09.412-.141.154-.058.3-.124.458-.19.13-.056.259-.113.387-.175q.226-.108.448-.23c.127-.07.251-.145.375-.221.143-.087.286-.173.425-.269s.271-.2.4-.309c.2-.156.39-.322.576-.5.139-.132.279-.264.41-.408.1-.114.2-.238.3-.36.117-.145.232-.294.341-.452q.133-.192.258-.4c.112-.184.216-.378.317-.576.065-.128.132-.252.192-.386a9.42,9.42,0,0,0,.4-1.063l.007-.019,1.153-3.457C850.815,1473.041,855.17,1477.853,858.23,1485.016Zm-29.672-6.2-.035,0a7.146,7.146,0,0,1-.755-.133c-.068-.016-.132-.036-.2-.054a4.4,4.4,0,0,1-.53-.179c-.067-.027-.134-.053-.2-.084a2.491,2.491,0,0,1-.58-.367,1.7,1.7,0,0,1-.23-.253c-.022-.03-.036-.065-.056-.1a1.561,1.561,0,0,1-.1-.177l.081,0,.183.01c.058,0,.116.008.176.014s.143.016.217.025.117.014.178.024c.094.014.19.034.287.053.045.01.088.016.134.027.141.033.285.072.429.118.043.014.087.033.13.048.1.037.207.075.31.12.054.023.107.051.161.078.092.044.182.091.271.143.057.032.112.068.168.1.085.056.169.116.251.18.053.041.106.083.157.128a3.235,3.235,0,0,1,.238.232c.031.032.061.063.091.1l-.059,0C829.046,1478.864,828.8,1478.848,828.558,1478.82Zm7.767-9.82a23.629,23.629,0,0,1,7.547,1.168l-1.172,3.514-.005.019c-.885,2.9-3.114,4.652-6.624,5.208-.24.038-.477.067-.711.091l-.147.016c-.231.022-.459.039-.681.051h-.04c-.218.011-.43.017-.637.019h-.1c-.215,0-.423,0-.621-.008h-.044c-.194-.007-.38-.016-.555-.027l-.042,0q-.274-.018-.512-.041l-.033,0c-.316-.03-.58-.064-.773-.092h-.009c-.011-.02-.025-.035-.035-.055a4.993,4.993,0,0,0-.433-.681c-.032-.042-.067-.082-.1-.123a4.872,4.872,0,0,0-.483-.518c-.022-.02-.042-.043-.064-.063a5.058,5.058,0,0,0-.586-.445q-.072-.048-.144-.093a5.95,5.95,0,0,0-.622-.338c-.028-.013-.056-.023-.084-.035-.2-.087-.395-.161-.594-.227l-.144-.048q-.321-.1-.638-.163l-.141-.026q-.293-.055-.575-.087l-.076-.009c-.206-.021-.4-.031-.594-.036l-.061,0C826.193,1473.186,828.716,1469,836.325,1469Zm-12.006,14.841c0-2.931.571-4.262.887-4.776l.054.05a3.771,3.771,0,0,0,.505.376c.063.04.132.07.2.106.12.067.238.134.364.19.085.038.174.067.261.1.111.042.221.087.334.122s.2.057.3.083.206.056.31.079.218.043.328.062c.093.016.184.033.276.046.117.017.23.03.345.042.08.009.159.018.238.024.116.01.226.017.336.023l.216.009c.1,0,.2.006.293.006l.092,0,.151,0h.1v.446l-1.284,2.567-1.331,1.332a.747.747,0,0,0-.22.53v1.245a4.082,4.082,0,0,0-.347,1.737A4.83,4.83,0,0,1,824.319,1483.841Zm4.252,1.728,1.2-1.2a.749.749,0,0,0,.14-.195l.553-1.1c.021.065.051.135.074.2.04.115.083.232.128.35s.088.23.137.347q.121.287.266.577c.059.12.125.24.191.361s.131.234.2.351.139.236.216.354c.132.2.276.4.429.6.03.04.054.081.085.121h-.005c-.2.053-.43.1-.672.141-.032.006-.066.01-.1.014a6.169,6.169,0,0,1-.785.071h0a5.008,5.008,0,0,1-2.056-.364Zm-2.3,12.511a15.355,15.355,0,0,1,1.06-1.5c-.074.233-.141.478-.211.717-.05.171-.1.338-.151.512-.139.5-.269,1.019-.389,1.549-.006.027-.013.052-.019.079-.125.56-.236,1.137-.339,1.726-.031.179-.057.365-.087.546-.067.419-.131.843-.187,1.276-.029.22-.055.443-.081.666q-.072.627-.131,1.271c-.02.228-.041.455-.059.686-.035.468-.064.946-.089,1.428-.01.2-.023.388-.031.586-.028.675-.047,1.36-.054,2.062-.033.325-.074.667-.121,1.02-.015.109-.034.224-.05.336-.038.259-.079.523-.126.793-.023.136-.049.274-.075.413q-.075.394-.164.8c-.03.139-.06.278-.093.418-.074.312-.156.628-.244.944-.027.1-.05.191-.078.287-.119.41-.251.821-.4,1.23-.035.1-.076.195-.113.294-.116.31-.239.618-.372.924-.06.138-.125.275-.189.412s-.136.271-.2.406a52.814,52.814,0,0,1-.37-5.769C822.9,1505.005,824.731,1500.552,826.266,1498.08Zm-2.679,22.349c.225-.336.435-.681.633-1.032.04-.071.074-.143.113-.214q.279-.515.524-1.042c.058-.125.113-.249.168-.374q.223-.51.416-1.027c.033-.087.069-.174.1-.262.011-.032.025-.064.037-.1,0,.079,0,.167.005.247.008.36.016.733.025,1.114.005.225.009.445.015.677.01.4.021.808.032,1.223.006.243.012.48.019.73.013.467.028.951.043,1.438.007.2.012.4.019.6.02.6.041,1.222.064,1.85,0,.113.008.22.012.334q.042,1.111.09,2.267c.008.17.016.345.024.517.026.595.052,1.194.082,1.8.013.28.028.565.043.848.025.508.051,1.016.079,1.531.017.322.036.646.055.97.027.486.055.972.085,1.462.008.12.014.238.021.359C825.243,1529.907,824.234,1525.02,823.587,1520.429Zm4.858,22.365-.015-.161c-.086-.93-.166-1.868-.242-2.807-.023-.282-.045-.563-.067-.845q-.1-1.279-.188-2.56c-.011-.149-.022-.3-.032-.448q-.1-1.485-.185-2.953c-.015-.259-.03-.515-.044-.772q-.067-1.193-.126-2.365c-.007-.137-.014-.276-.021-.413.016.081.032.16.047.241q.084.436.169.865.045.227.09.45.089.443.18.877c.026.129.053.26.08.389q.117.554.234,1.091l.027.124q.133.608.266,1.192c.021.09.041.177.062.266.067.3.135.586.2.871.028.12.056.237.084.356.058.244.116.486.174.723.032.131.063.259.095.388.054.222.109.441.162.656.03.119.06.238.09.355.056.224.112.441.167.656.026.1.052.2.077.3.067.255.131.5.2.741l.037.143q.118.441.229.847l.026.1c.062.225.122.443.18.652.023.084.046.162.068.243l.128.451c.022.077.042.15.063.223.041.14.079.275.117.4.02.071.04.139.059.206.034.117.066.226.1.332l.054.181c.03.1.058.2.086.288l.045.149,0,.015c.037.121.07.232.1.327l.119.384h0l.009.029.005.022,0,.009-2.009,1.005C829.038,1544.941,828.736,1543.86,828.445,1542.794Zm12.144-.719.943-.472a4.469,4.469,0,0,1,.637,1.9,1.252,1.252,0,0,0,1.241,1.112,1.325,1.325,0,0,0,.14-.007,1.25,1.25,0,0,0,1.1-1.381,7.022,7.022,0,0,0-.871-2.752l6.745-3.372a3.023,3.023,0,0,1,.164,1.754,1.251,1.251,0,0,0,.967,1.48,1.266,1.266,0,0,0,.258.027,1.25,1.25,0,0,0,1.222-.994,5.471,5.471,0,0,0-.372-3.387l.858-.429a8.649,8.649,0,0,1,1.286,4.766l-11.411,5.706h0l-1.7.849A11.41,11.41,0,0,0,840.589,1542.075Zm-7.42,10.8.222.961c-.03.266-.067.618-.109,1.036v.005c-.022.224-.046.47-.07.732l-.013.14c-.024.26-.049.534-.073.826l-.012.143c-.023.28-.047.571-.07.875l-.009.117,0,.038c-.446-1.279-.908-2.663-1.376-4.117Zm11.971,26.6a2.92,2.92,0,0,1-2.507-1.654.751.751,0,0,0-1.276,0,2.921,2.921,0,0,1-2.508,1.654,2.542,2.542,0,0,1-1.905-.857c-2.059-2.145-2.992-8.241-2.625-17.165q.03-.726.068-1.415c.008-.148.017-.288.026-.433.018-.305.036-.608.056-.9,0-.052.007-.1.01-.154l1.116,4.832a.469.469,0,0,0,.013.052l2.96,9.621a3.585,3.585,0,0,0,6.853,0l2.952-9.595,1.238-3.218c0,.074.008.147.012.222.026.519.049,1.054.068,1.6,0,.087.008.171.01.258.02.626.033,1.268.04,1.916,0,.172,0,.346,0,.519,0,.5,0,1.007-.009,1.513,0,.191,0,.382-.01.574-.017.668-.04,1.336-.078,2C849.364,1573.687,848.354,1579.469,845.14,1579.469Zm6.1-13.741c0-.139,0-.277,0-.415,0-.37,0-.737,0-1.1l-.006-.46c-.007-.4-.015-.788-.027-1.176,0-.091,0-.183-.007-.273q-.023-.708-.054-1.388c0-.125-.012-.245-.018-.368-.016-.336-.034-.666-.053-.988-.008-.138-.016-.274-.024-.409-.021-.34-.043-.668-.065-.988-.006-.078-.011-.159-.017-.235-.025-.353-.051-.7-.078-1.019l1.931-5.019,2.644-6.871.009-.022.3-.729.023-.06c.1-.257.224-.568.361-.926l.024-.064c.146-.38.31-.815.5-1.334l.1-.283a1.217,1.217,0,0,0,.587-.827l3.441-1.721-.012.1c-.125.905-.258,1.785-.4,2.647-.022.141-.045.283-.068.423q-.206,1.254-.428,2.445c-.026.139-.053.276-.079.413-.153.8-.311,1.573-.475,2.322-.02.092-.041.18-.062.272-.168.756-.342,1.491-.523,2.2l-.02.081a172.484,172.484,0,0,1-7.505,15.961Zm10.868-25.157c.018-.117.033-.242.05-.36q.114-.78.219-1.579c.018-.133.038-.26.055-.393l.436-.218Q862.508,1539.3,862.111,1540.571Z" fill="#1a1a1a"/>
    </g>
  </g>
</svg>
