<?xml version="1.0" encoding="utf-8"?>
<!-- Uploaded to: SVG Repo, www.svgrepo.com, Generator: SVG Repo Mixer Tools -->
<svg width="800px" height="800px" viewBox="-42.45 0 287.368 287.368" xmlns="http://www.w3.org/2000/svg"><defs><style>.a{fill:#ffffff;}.b{fill:#957f6e;}.c{fill:#211715;}.d{fill:#c6c6c6;}</style></defs><path class="a" d="M103.807,172.614c.094-.022.19-.039.288-.052q1.6-.21,3.234-.41c-.442-6.722-1.32-13.35-.692-19.19H95.645c.632,5.838-.245,12.463-.688,19.183q1.683.2,3.323.417a3.049,3.049,0,0,1,2.537,3.093h.74A3.091,3.091,0,0,1,103.807,172.614Z"/><path class="a" d="M160.546,87.191a16.215,16.215,0,0,0-1.617-7.93,6.5,6.5,0,0,0-4.081-3.118l.206-.794a61.838,61.838,0,0,0,2.088-17.833A56.63,56.63,0,0,0,133.76,13.208C124.7,6.471,113.37,2.456,100.039,2.456S75.376,6.48,66.318,13.217A56.623,56.623,0,0,0,42.936,57.525a61.838,61.838,0,0,0,2.088,17.833l.22.848A6.513,6.513,0,0,0,41.4,79.261c-1.75,3.035-1.975,8.209-1.18,12.242.042-.5.084-1.033.128-1.595a4.791,4.791,0,0,1,2.144-2.99,4.194,4.194,0,0,1,4.337-.01c2.919,1.54,4.278,7.247,4.278,7.247l.929,3.9a3.9,3.9,0,0,1,1.278-.292c3.794-.252,5.169,9.889,6.052,12.8a42.616,42.616,0,0,0,21.784,25.093c9.928,3.277,13.434,9.242,14.406,16.509-.219.578.033.686.285.794h10.8c.821-7.625,4.213-13.908,14.5-17.3a42.618,42.618,0,0,0,21.785-25.093c.882-2.913,2.257-13.054,6.051-12.8a4.165,4.165,0,0,1,.944.169l1.264-3.778s1.358-5.707,4.277-7.247a4.2,4.2,0,0,1,4.338.01,4.245,4.245,0,0,1,.741.575C160.543,87.392,160.545,87.292,160.546,87.191Z"/><path class="b" d="M95.086,172.159c-9.021-1.1-18.894-1.987-28.191-2.933.327-2.271.481-3.3.877-6.071a7.329,7.329,0,0,0-3.744-7.478,28.683,28.683,0,0,1-3.955-2.365C52.016,147.217,47.616,143.2,45.087,135.9c-11.215,4.152-20.419,9.022-27.684,16.59-7.253,8.429-13.845,17.915-15.044,38,0,23.551,3.26,49.784,15.483,70.49,4.5,7.618,10.639,14.416,18.358,18.737a42.106,42.106,0,0,0,32.438,3.456c.147-.046.293-.094.438-.142,8.63-2.856,14.8-7.515,19.292-14.625a44.6,44.6,0,0,0,3.816-7.742H110.19a44.744,44.744,0,0,0,3.816,7.742c4.5,7.11,10.662,11.769,19.292,14.625.146.048.292.1.438.142a42.105,42.105,0,0,0,32.438-3.456c7.719-4.321,13.861-11.119,18.358-18.737,12.223-20.706,15.484-46.939,15.484-70.49-1.2-20.084-7.791-29.57-15.044-38-7.284-7.587-16.516-12.463-27.769-16.621-2.526,7.314-6.918,11.338-15,17.442a28.1,28.1,0,0,1-3.945,2.365,7.313,7.313,0,0,0-3.744,7.478c.392,2.735.535,3.772.873,5.976-11.428,1.2-23.721,2.358-34.218,3.824C99.2,172.676,97.167,172.412,95.086,172.159Z"/><path class="c" d="M94.426,154.934a5.521,5.521,0,0,0,2.9.428h9.315a2.4,2.4,0,1,0,0-4.8h-10.8l1.211.328a1.383,1.383,0,0,1-.2-.1,2.4,2.4,0,0,0-2.422,4.144Z"/><path class="c" d="M93.1,248.373c-1.573,8.525-4.537,17.326-10.61,23.736A35.024,35.024,0,0,1,60.8,282.369a40.1,40.1,0,0,1-25.959-6.291c-7.418-4.9-12.852-12.146-16.946-19.933-8.676-16.5-11.918-35.455-12.849-53.9a105.945,105.945,0,0,1-.124-14.04,68.62,68.62,0,0,1,2.187-12.647,51.253,51.253,0,0,1,8.736-17.4,49.973,49.973,0,0,1,6.368-6.945,56,56,0,0,1,9.261-6.509c7.368-4.208,15.415-7.065,23.474-9.633,2.292-.73,4.592-1.433,6.9-2.125,2.951-.886,1.694-5.521-1.276-4.629-9.081,2.728-18.19,5.605-26.746,9.74-7.141,3.451-14.163,7.991-19.291,14.124A60.4,60.4,0,0,0,4.038,169.5C.785,178.08-.192,187.316.03,196.429c.478,19.632,3.293,39.667,11.522,57.66,3.957,8.653,9.272,16.916,16.678,23.017A44.8,44.8,0,0,0,55.2,287.341a41.743,41.743,0,0,0,26.281-7.955c7.343-5.536,11.811-13.566,14.449-22.254a68.632,68.632,0,0,0,1.8-7.483,2.465,2.465,0,0,0-1.676-2.952,2.421,2.421,0,0,0-2.952,1.676Z"/><path class="c" d="M104.642,249.649c1.7,9.241,5.116,18.612,11.6,25.6,6.164,6.637,14.988,10.6,23.892,11.755a44.513,44.513,0,0,0,28.29-5.816c8.172-4.9,14.487-12.369,19.107-20.612,9.678-17.264,13.392-37.3,14.514-56.868a112.237,112.237,0,0,0,.274-14.6,77.93,77.93,0,0,0-2.244-14.145,54.8,54.8,0,0,0-9.245-19.018,53.6,53.6,0,0,0-6.893-7.786,61.264,61.264,0,0,0-10.006-7.248c-7.814-4.568-16.438-7.661-25.03-10.406-2.359-.753-4.727-1.477-7.1-2.19-2.965-.89-4.232,3.741-1.276,4.629,8.563,2.571,17.186,5.235,25.27,9.1,6.694,3.2,13.392,7.313,18.231,13.035a54.872,54.872,0,0,1,9.5,15.257,65.189,65.189,0,0,1,4.031,25.067c-.37,18.456-2.724,37.484-10.126,54.554-3.564,8.221-8.212,16.09-14.875,22.181a39.619,39.619,0,0,1-24.147,10.345,37.8,37.8,0,0,1-24.539-6.817c-6.648-4.809-10.564-12.314-12.873-20.015a68.658,68.658,0,0,1-1.736-7.273,2.422,2.422,0,0,0-2.952-1.676,2.452,2.452,0,0,0-1.677,2.952Z"/><path class="c" d="M110.191,258.264H92.181c-3.088,0-3.093,4.8,0,4.8h18.01c3.089,0,3.094-4.8,0-4.8Z"/><path class="d" d="M51.142,76.581a7.725,7.725,0,0,0-3.587-.742,8.946,8.946,0,0,0-2.3.366A62.35,62.35,0,0,1,42.936,57.52a56.421,56.421,0,0,1,12.12-33.447c1.205,3.414,6.592,6.515,9.257,8.537,3.623,2.748,3,6.391.968,9.838a92.362,92.362,0,0,0-7.9,17.319C55.392,65.675,54.4,71.8,52.9,77.794A6.789,6.789,0,0,0,51.142,76.581Z"/><path class="d" d="M148.64,76.873a6.606,6.606,0,0,0-1.562,1.284c-1.552-6.1-2.548-12.362-4.579-18.39a92.294,92.294,0,0,0-7.9-17.319c-2.027-3.447-2.656-7.09.967-9.838,2.753-2.089,8.412-5.33,9.364-8.877,6.5,8.069,11.57,19.1,12.19,33.787a60.215,60.215,0,0,1-2.254,18.623,9.188,9.188,0,0,0-2.1-.3A7.636,7.636,0,0,0,148.64,76.873Z"/><path class="c" d="M157.368,75.987c3.92-15.3,2.493-31.725-5.249-45.625A59.816,59.816,0,0,0,125.69,5.6,61.866,61.866,0,0,0,79.634,3.443,59.927,59.927,0,0,0,50.379,26.426c-8.408,12.5-11.38,28.09-9.061,42.888.352,2.25.826,4.476,1.391,6.682.767,2.99,5.4,1.723,4.629-1.276-3.629-14.163-2.323-29.384,4.93-42.22A55.222,55.222,0,0,1,76.462,9.911C89.509,3.706,105.413,3.227,118.983,8a53.938,53.938,0,0,1,26.571,20.84,55.506,55.506,0,0,1,8.54,39.425c-.348,2.17-.809,4.317-1.354,6.446-.767,2.994,3.861,4.271,4.628,1.276Z"/><path class="c" d="M53.064,25.5c1.349,3.088,4.474,5.243,7.132,7.121,2.245,1.588,5,2.985,4.112,6.165a24.235,24.235,0,0,1-2.477,4.879q-1.565,2.855-2.923,5.817A88.588,88.588,0,0,0,54.149,62.1c-1.414,4.963-2.325,10.05-3.567,15.056-.743,3,3.885,4.277,4.629,1.276,1.127-4.543,1.983-9.151,3.187-13.675A80.531,80.531,0,0,1,63.053,51.9q1.455-3.169,3.147-6.224a26.741,26.741,0,0,0,2.737-5.618,8.737,8.737,0,0,0-.1-5.341,10.019,10.019,0,0,0-3.863-4.587c-2.71-1.965-6.367-3.848-7.768-7.057a2.417,2.417,0,0,0-3.284-.861,2.462,2.462,0,0,0-.861,3.284Z"/><path class="c" d="M142.673,23.076c-1.243,2.847-4.333,4.647-6.78,6.358a14.213,14.213,0,0,0-4.139,3.8,7.922,7.922,0,0,0-1.113,5.185,14.808,14.808,0,0,0,2.122,5.64c1.163,2.015,2.26,4.065,3.272,6.159a81.965,81.965,0,0,1,4.936,12.7c1.491,5.107,2.42,10.355,3.7,15.515.744,3,5.374,1.727,4.629-1.276-1.088-4.389-1.925-8.838-3.065-13.214a87.21,87.21,0,0,0-4.5-12.763q-1.3-2.985-2.805-5.875c-.944-1.811-2.138-3.541-2.963-5.409a4.739,4.739,0,0,1-.342-3.765c.55-1.24,1.894-1.993,2.958-2.736,3-2.095,6.713-4.4,8.237-7.895a2.477,2.477,0,0,0-.861-3.284,2.418,2.418,0,0,0-3.283.861Z"/><path class="c" d="M54.594,76.1A10.433,10.433,0,0,0,43.2,74.443a10.026,10.026,0,0,0-5.2,6.973,26.38,26.38,0,0,0,4.048,20.607c2.876,4.173,6.95,7.168,12.215,6.449a2.415,2.415,0,0,0,1.676-2.952,2.465,2.465,0,0,0-2.952-1.677c-3.744.512-6.625-3.592-8.114-6.444a22.725,22.725,0,0,1-2.647-8.889,19.356,19.356,0,0,1,.287-5.319,11.508,11.508,0,0,1,.544-1.917,6.711,6.711,0,0,1,.488-.941c.055-.09.5-.712.162-.282a5.377,5.377,0,0,1,7.488-.56c2.286,2.068,5.69-1.316,3.394-3.394Z"/><path class="c" d="M149.125,79.491a5.377,5.377,0,0,1,7.488.56c-.341-.43.107.192.162.282a6.825,6.825,0,0,1,.489.941,11.774,11.774,0,0,1,.544,1.917,19.4,19.4,0,0,1,.286,5.319,22.725,22.725,0,0,1-2.647,8.889c-1.489,2.852-4.37,6.956-8.114,6.444a2.484,2.484,0,0,0-2.952,1.677,2.417,2.417,0,0,0,1.676,2.952c8.66,1.183,13.744-7.395,15.928-14.56a24.968,24.968,0,0,0,.611-11.139A11.184,11.184,0,0,0,158.124,75a10.355,10.355,0,0,0-12.393,1.1c-2.295,2.077,1.108,5.463,3.394,3.394Z"/><path class="c" d="M144.67,101.948a57.143,57.143,0,0,1-3.229,9.787c.286-.709-.195.42-.316.672-.216.452-.442.9-.674,1.341-.591,1.127-1.226,2.231-1.887,3.317a58.826,58.826,0,0,1-12.713,15.109,23.368,23.368,0,0,1-9.418,4.89c-3.008.695-1.735,5.324,1.276,4.628,7.242-1.672,13.258-6.99,17.966-12.5a64.082,64.082,0,0,0,9.87-14.953q.246-.549.473-1.1c.066-.16.345-.811.074-.189.38-.873.753-1.748,1.089-2.639a46.772,46.772,0,0,0,2.118-7.083,2.459,2.459,0,0,0-1.676-2.952,2.425,2.425,0,0,0-2.953,1.676Z"/><path class="c" d="M50.891,103.056a59.2,59.2,0,0,0,8.418,19.74C63.587,129.2,69.2,135.2,76,138.947a33.076,33.076,0,0,0,11.137,3.786,2.479,2.479,0,0,0,2.952-1.676,2.418,2.418,0,0,0-1.676-2.953c-13.974-2.064-24.4-14.13-29.746-26.527a56,56,0,0,1-3.144-9.8c-.682-3.011-5.311-1.737-4.628,1.276Z"/><path class="c" d="M91.391,117.707a19.259,19.259,0,0,0,9.272,2.146,15.073,15.073,0,0,0,9.353-2.758,2.412,2.412,0,0,0,0-3.394,2.462,2.462,0,0,0-3.394,0c.727-.566.16-.132-.026-.012s-.378.23-.574.333c-.1.053-.206.1-.307.152-.377.195.085.013.094-.03-.019.089-.7.257-.791.288a13.973,13.973,0,0,1-2.214.5c.353-.053-.072,0-.213.018q-.325.033-.653.054c-.524.034-1.049.047-1.574.044-.47,0-.939-.019-1.409-.051-.215-.014-.43-.031-.645-.053-.022,0-.8-.111-.314-.034a16.034,16.034,0,0,1-2.068-.459c-.29-.087-.573-.191-.859-.289-.614-.21.35.182-.2-.08q-.531-.251-1.051-.524a2.452,2.452,0,0,0-3.284.861,2.426,2.426,0,0,0,.861,3.283Z"/><path class="c" d="M98.384,95.861a43.641,43.641,0,0,1,1.024,4.687l-.086-.638a2.8,2.8,0,0,1,.018.647l.086-.638a1.608,1.608,0,0,1-.072.291l.242-.574a1.219,1.219,0,0,1-.1.188l.375-.486a1.04,1.04,0,0,1-.153.151l.486-.375a3.067,3.067,0,0,1-.372.2l.574-.242a2.741,2.741,0,0,1-.626.183l.638-.086a2.506,2.506,0,0,1-.587,0l.638.086c-.222-.031-.439-.085-.661-.115a1.823,1.823,0,0,0-.957-.043,1.8,1.8,0,0,0-.892.285,2.4,2.4,0,0,0-.861,3.284,2.3,2.3,0,0,0,1.434,1.1c.5.067.993.2,1.506.218a4.816,4.816,0,0,0,2.217-.527,3.2,3.2,0,0,0,1.774-2.11,5.313,5.313,0,0,0-.022-2.273c-.255-1.509-.6-3.006-.993-4.487a2.4,2.4,0,1,0-4.628,1.276Z"/><path class="c" d="M74.662,82.589c-.783,2.543-.273,8.394,4.546,8.892,6.369-.038,6.708-7.112,4.564-10.438C82.016,78.32,76.855,77.187,74.662,82.589Z"/><path class="c" d="M125.663,82.589c.783,2.544.273,8.395-4.546,8.892-6.369-.038-6.708-7.112-4.564-10.438C118.308,78.32,123.47,77.187,125.663,82.589Z"/><path class="c" d="M114.045,113.877c.346.636.64,1.3.922,1.966l-.241-.573a47.472,47.472,0,0,1,1.662,4.569,2.51,2.51,0,0,0,1.1,1.434,2.4,2.4,0,0,0,3.526-2.71c-.374-1.227-.807-2.438-1.279-3.63a31.42,31.42,0,0,0-1.549-3.478,2.421,2.421,0,0,0-3.283-.861,2.448,2.448,0,0,0-.861,3.283Z"/><path class="c" d="M82.886,111.067a33.059,33.059,0,0,0-1.626,3.65c-.5,1.264-.959,2.546-1.355,3.846a2.423,2.423,0,0,0,1.677,2.952,2.45,2.45,0,0,0,2.952-1.676A50.128,50.128,0,0,1,86.3,115l-.242.573c.3-.706.611-1.409.978-2.083a2.4,2.4,0,0,0-4.145-2.422Z"/><path class="c" d="M94.8,92.886c4.254-6.983,4.015-17.944-4.277-21.929a30.134,30.134,0,0,0-12.879-2.636c-4.143,0-8.633.506-12.3,2.566a15.35,15.35,0,0,0-7.195,8.578,16.881,16.881,0,0,0,.429,10.216c2.45,6.952,8.613,11.3,15.829,12.108a24.7,24.7,0,0,0,11.46-1.213,18.683,18.683,0,0,0,8.932-7.69c1.666-2.612-2.487-5.022-4.145-2.422A14.065,14.065,0,0,1,85.11,95.7,17.2,17.2,0,0,1,77.7,97.126c-5.418.043-10.676-1.76-13.521-6.659a13.485,13.485,0,0,1-1.8-6.9,9.331,9.331,0,0,1,3.371-7.134c2.294-2.032,5.228-2.79,8.21-3.111a30.147,30.147,0,0,1,10.778.673c3.158.818,6.437,2.308,7.535,5.682a13.19,13.19,0,0,1-1.625,10.79C89.044,93.109,93.194,95.523,94.8,92.886Z"/><path class="c" d="M109.658,90.464c-3.1-5.088-3.3-13.188,3.231-15.628a28.214,28.214,0,0,1,10.649-1.7c3.161.08,6.554.434,9.319,2.081a10.1,10.1,0,0,1,4.9,6.37,12.876,12.876,0,0,1-.867,7.4,13.713,13.713,0,0,1-11.929,8.094,21.1,21.1,0,0,1-9.1-1.07,13.7,13.7,0,0,1-6.2-5.539c-1.656-2.6-5.812-.192-4.145,2.422a18.677,18.677,0,0,0,7.537,7.092,23.021,23.021,0,0,0,10.09,1.949c7.2-.049,14.213-3.183,17.573-9.844a18.426,18.426,0,0,0,1.967-9.627,14.064,14.064,0,0,0-5.282-9.884c-3.3-2.676-7.111-3.655-11.267-4.076a33.154,33.154,0,0,0-13.293,1.288c-4.308,1.373-8.191,4.283-9.49,8.816a18.163,18.163,0,0,0,2.165,14.286C107.118,95.521,111.271,93.111,109.658,90.464Z"/><path class="c" d="M95.177,83.637h9.96a2.4,2.4,0,1,0,0-4.8h-9.96a2.4,2.4,0,0,0,0,4.8Z"/><path class="a" d="M144.117,105.6c-.513,2.039-.883,3.949-1.192,4.97a42.618,42.618,0,0,1-21.785,25.093c-18.166,6-14.83,20.994-13.81,36.493,8.977-1.1,18.8-2.049,28.062-3.021-.339-2.2-.482-3.241-.874-5.976a7.313,7.313,0,0,1,3.744-7.478,28.1,28.1,0,0,0,3.945-2.365c8.484-6.411,12.9-10.527,15.368-18.568,2.425-7.931,3.877-18.09,4.723-31.352a76.67,76.67,0,0,0-.356-13.484,4.786,4.786,0,0,0-2.143-2.99,4.2,4.2,0,0,0-4.338-.01c-2.919,1.54-4.277,7.247-4.277,7.247l-.962,4.038C146.981,96.255,145.219,101.223,144.117,105.6Z"/><path class="c" d="M109.7,171.728c-.512-7.381-1.932-15.491.083-22.51a14.816,14.816,0,0,1,5.138-7.757,20.881,20.881,0,0,1,5.385-2.965A34.181,34.181,0,0,0,127,135.118a44.913,44.913,0,0,0,18.125-23.554c.945-3.006,1.331-6.15,2.453-9.111a13.576,13.576,0,0,1,.832-1.67,3.848,3.848,0,0,1,.246-.367c-.258.344-.042.068.014,0,0-.006.428-.488.173-.2-.148.1-.133.095.048-.029.195-.1.2-.116.019-.038-.023.113-.126.024.192-.037-.622.119-.255.021-.128.056-.593-.163.975.255.295.062.421.119.521.286.8.769.09.155.173.315.247.478-.175-.384.045.15.078.261.113.374.206.75.286,1.133a13.946,13.946,0,0,1,.189,2.27,35.2,35.2,0,0,1-.248,4.354,147.025,147.025,0,0,1-3.306,17.624c-.7,3.005,3.925,4.288,4.629,1.276a153.185,153.185,0,0,0,3.418-18.37,25.959,25.959,0,0,0-.154-8.893c-.864-3.584-4.515-7.25-8.436-5.254-3.183,1.62-4.239,6.137-5.024,9.3a45.672,45.672,0,0,1-3.779,11.062,41.9,41.9,0,0,1-9.837,12.088,37.263,37.263,0,0,1-6.18,4.236c-2.22,1.22-4.676,1.895-6.9,3.12a20.053,20.053,0,0,0-8.52,8.689c-4.058,8.446-2.252,18.394-1.63,27.364a2.458,2.458,0,0,0,2.4,2.4,2.42,2.42,0,0,0,2.4-2.4Z"/><path class="c" d="M153.5,94.793a12.709,12.709,0,0,1,2.077-4.816c.562-.748,1.678-1.709,2.883-1.062,1.345.721,1.164,2,1.273,3.369a120.893,120.893,0,0,1-.895,23.368,91.6,91.6,0,0,1-3.955,19.614c-2.072,5.964-6.5,10.176-11.337,14.009a37.457,37.457,0,0,1-5.477,3.785,11.282,11.282,0,0,0-4.671,4.094c-2.21,3.718-1.022,7.976-.418,11.973a2.417,2.417,0,0,0,2.953,1.676,2.46,2.46,0,0,0,1.676-2.952c-.459-3.036-1.765-6.862.76-9.306,1.341-1.3,3.346-1.917,4.859-3.019,1.736-1.265,3.431-2.6,5.09-3.967a42.067,42.067,0,0,0,7.373-7.54,29.377,29.377,0,0,0,4.29-8.932,117.373,117.373,0,0,0,3.954-22.208c.448-4.475.878-8.993.925-13.493.019-1.8-.065-3.6-.195-5.4-.143-1.963-.019-4.2-.857-6.012a6.89,6.89,0,0,0-11.371-1.693,16.7,16.7,0,0,0-3.565,7.233c-.727,3,3.9,4.281,4.628,1.276Z"/><path class="a" d="M58.153,105.532c-1.1-4.358-2.863-9.267-6.089-7.339L51.1,94.155s-1.359-5.707-4.278-7.247a4.194,4.194,0,0,0-4.337.01,4.791,4.791,0,0,0-2.144,2.99,76.767,76.767,0,0,0-.356,13.484c.847,13.262,2.3,23.421,4.724,31.352,2.465,8.041,6.883,12.157,15.368,18.568a28.047,28.047,0,0,0,3.945,2.365,7.316,7.316,0,0,1,3.744,7.478c-.4,2.774-.539,3.8-.888,6.07,9.258.942,19.087,1.827,28.076,2.918,1.021-15.5,4.352-30.489-13.811-36.484a42.616,42.616,0,0,1-21.784-25.093C59.049,109.534,58.675,107.6,58.153,105.532Z"/><path class="c" d="M97.385,171.728c.557-8.022,2.09-16.73-.492-24.558a19.915,19.915,0,0,0-7.106-9.853,26.513,26.513,0,0,0-6.179-3.312,32.671,32.671,0,0,1-6.542-3.462,38.9,38.9,0,0,1-15.941-22.857c-.8-3.523-1.53-7.586-3.919-10.431-2.647-3.152-7.324-1.948-9.188,1.409-1.76,3.169-1.544,7.19-1.171,10.674a156.972,156.972,0,0,0,3.494,19.053c.7,3.007,5.332,1.734,4.628-1.276a141.115,141.115,0,0,1-3.235-16.983c-.119-1.113-.241-2.224-.291-3.343-.032-.712-.042-1.427-.014-2.14.016-.408.043-.816.085-1.223.007-.064.067-.47.008-.086.036-.236.08-.473.13-.706a10.543,10.543,0,0,1,.31-1.116c.026-.077.178-.425.006-.045a4.1,4.1,0,0,1,.194-.386c.091-.151.177-.3.278-.447.215-.311-.375.36.079-.07a3.881,3.881,0,0,1,.3-.275c-.414.323.125-.05.2-.069-.531.138.544-.2.378-.077-.05.037.3.134-.211-.041a1.4,1.4,0,0,1,.324.089l-.263-.1a2.045,2.045,0,0,1,.224.139c-.027.11-.254-.273.012.04.087.1.182.193.268.3-.322-.382.1.16.127.215,1.492,2.585,2.086,5.917,2.822,9.05,2.138,9.1,8.285,17.427,15.579,23.108a41.668,41.668,0,0,0,6.3,4.118c2.073,1.084,4.33,1.695,6.38,2.841a15.318,15.318,0,0,1,6.82,7.25c1.456,3.26,1.729,7.207,1.683,11.021-.055,4.53-.564,9.041-.878,13.557a2.4,2.4,0,1,0,4.8,0Z"/><path class="c" d="M53.417,93.517a17.835,17.835,0,0,0-2.662-6.095c-2.512-3.5-7.244-4.827-10.672-1.659a7.4,7.4,0,0,0-2.228,5.273c-.152,1.9-.319,3.807-.391,5.716a104.318,104.318,0,0,0,.58,12.79,136.324,136.324,0,0,0,3.622,23.268,35.543,35.543,0,0,0,3.649,9.278,33.659,33.659,0,0,0,6.552,7.674c1.691,1.511,3.473,2.916,5.269,4.3a53.985,53.985,0,0,0,5.836,3.779c3.666,2.148,2.223,6.6,1.707,10.01a2.478,2.478,0,0,0,1.677,2.952,2.418,2.418,0,0,0,2.952-1.676c.533-3.526,1.607-7.318.175-10.745A9.859,9.859,0,0,0,66,154.089c-1.565-1.1-3.348-1.825-4.891-2.984-5.07-3.808-10.183-7.923-12.9-13.8a43.445,43.445,0,0,1-2.626-8.659c-.75-3.317-1.324-6.677-1.774-10.048-1.034-7.729-1.95-15.747-1.461-23.548.062-.989.141-1.976.22-2.964a6.072,6.072,0,0,1,.326-2.223,2.057,2.057,0,0,1,3.277-.479,10.928,10.928,0,0,1,2.614,5.411c.726,3,5.356,1.73,4.629-1.276Z"/><path class="c" d="M162.621,222.7c-2.416-10.621-4.724-21.265-7.036-31.908q-1.647-7.584-3.3-15.166c-.454-2.074-.754-4.276-1.4-6.3a5.414,5.414,0,0,0-2.582-3.1c-1.473-.793-2.923-.59-4.5-.408-12.372,1.421-24.783,2.484-37.142,4.022a14.67,14.67,0,0,0-4.392.808,5.385,5.385,0,0,0-2.764,3.121,14.018,14.018,0,0,0-.415,4.375q-.069,2.709-.1,5.42-.106,10.2.367,20.393c.7,15.344,2.9,30.539,5.287,45.7a2.419,2.419,0,0,0,2.953,1.677,2.46,2.46,0,0,0,1.676-2.953c-1.989-12.636-3.878-25.3-4.759-38.074-.446-6.463-.66-12.946-.726-19.423q-.048-4.764.032-9.528.039-2.349.108-4.7c.02-.661-.089-1.473.488-1.714a7.781,7.781,0,0,1,1.812-.247q1.082-.136,2.165-.267,2.21-.267,4.42-.516,4.531-.512,9.066-.979c5.872-.613,11.748-1.2,17.617-1.834q2.153-.234,4.3-.48c.588-.068,1.944-.527,2.414-.037.39.405.445,1.751.57,2.32q.369,1.679.737,3.359,1.517,6.938,3.019,13.879c2.451,11.286,4.893,22.576,7.455,33.838.685,3.01,5.314,1.736,4.628-1.276Z"/><path class="c" d="M44.182,224.86c2.252-9.9,4.42-19.812,6.588-29.727q1.6-7.346,3.208-14.691.693-3.168,1.388-6.334c.2-.93.4-1.865.615-2.792.209-.884.484-.816,1.346-.725,11.923,1.27,23.872,2.339,35.781,3.732,1.441.169,2.889.316,4.324.529.689.1.835.129.985.8a13.984,13.984,0,0,1,.072,2.484q.031,1.234.055,2.47.045,2.454.058,4.908.048,9.7-.428,19.4c-.707,14.59-2.8,29.037-5.07,43.452a2.475,2.475,0,0,0,1.676,2.953,2.419,2.419,0,0,0,2.952-1.677c2.157-13.7,4.215-27.453,5.058-41.311.412-6.784.6-13.585.616-20.381q.009-5.157-.13-10.314a10.374,10.374,0,0,0-.708-4.594,5.322,5.322,0,0,0-3.181-2.695,27.516,27.516,0,0,0-4.534-.623q-2.419-.294-4.842-.56c-3.167-.352-6.338-.677-9.509-1-6.3-.63-12.615-1.223-18.915-1.906-2.845-.308-6.142-1.3-8.534.8-1.811,1.588-1.991,4.285-2.478,6.5q-1.6,7.276-3.183,14.556c-2.581,11.825-5.153,23.653-7.839,35.455-.684,3.007,3.943,4.292,4.629,1.276Z"/></svg>