<?xml version="1.0" encoding="iso-8859-1"?>
<!-- Generator: Adobe Illustrator 19.0.0, SVG Export Plug-In . SVG Version: 6.00 Build 0)  -->
<svg version="1.1" id="Layer_1" xmlns="http://www.w3.org/2000/svg" xmlns:xlink="http://www.w3.org/1999/xlink" x="0px" y="0px"
	 viewBox="0 0 491.2 491.2" style="enable-background:new 0 0 491.2 491.2;" xml:space="preserve">
<path style="fill:#FFA300;" d="M472.9,463.2l-29.6-444C441.7,8,433.7,0,423.3,0H68.1c-10.4,0-18.4,8-20,19.2L17.7,465.6
	c-0.8,6.4,0.8,12.8,4.8,17.6c4,4.8,9.6,8,15.2,8h416l0,0c11.2,0,20-10.4,20-22.4C473.7,466.4,473.7,464.8,472.9,463.2z"/>
<path style="fill:#FF8500;" d="M453.7,491.2L453.7,491.2c11.2,0,20-10.4,20-22.4c0-2.4,0-4-0.8-5.6l-29.6-444
	C441.7,8,433.7,0,423.3,0H68.1c-10.4,0-18.4,8-20,19.2"/>
<path style="fill:#FF8500;" d="M245.7,260c-79.2,0-143.2-98.4-143.2-177.6c0-8,6.4-14.4,14.4-14.4s14.4,6.4,14.4,14.4
	c0,63.2,51.2,114.4,114.4,114.4s114.4-51.2,114.4-114.4c0-8,6.4-14.4,14.4-14.4s14.4,6.4,14.4,14.4C388.9,160.8,324.9,260,245.7,260
	z"/>
<g>
	<path style="fill:#FF7300;" d="M131.3,82.4c0-8-6.4-14.4-14.4-14.4s-14.4,6.4-14.4,14.4v0.8l37.6,44
		C134.5,113.6,131.3,98.4,131.3,82.4z"/>
	<path style="fill:#FF7300;" d="M388.9,82.4c0-8-6.4-14.4-14.4-14.4s-14.4,6.4-14.4,14.4c0,63.2-51.2,114.4-114.4,114.4
		c-22.4,0-43.2-6.4-60.8-17.6l68.8,80C328.9,252.8,388.9,158.4,388.9,82.4z"/>
</g>
<path style="fill:#AFF9F9;" d="M245.7,224.8c-79.2,0-143.2-64-143.2-143.2c0-8,6.4-14.4,14.4-14.4s14.4,6.4,14.4,14.4
	c0,63.2,51.2,114.4,114.4,114.4s114.4-51.2,114.4-114.4c0-8,6.4-14.4,14.4-14.4s14.4,6.4,14.4,14.4
	C388.9,160.8,324.9,224.8,245.7,224.8z"/>
<g>
	<path style="fill:#7CECF2;" d="M374.5,68c-8,0-14.4,6.4-14.4,14.4c0,46.4-28,86.4-68,104c48.8-16.8,85.6-59.2,94.4-112
		C384.1,70.4,379.3,68,374.5,68z"/>
	<path style="fill:#7CECF2;" d="M131.3,82.4c0-8-6.4-14.4-14.4-14.4c-5.6,0-9.6,3.2-12,7.2c8.8,52,45.6,94.4,94.4,112
		C159.3,168.8,131.3,128.8,131.3,82.4z"/>
</g>
<path style="fill:#FF7300;" d="M17.7,465.6c-0.8,6.4,0.8,12.8,4.8,17.6c4,4.8,9.6,8,15.2,8h416l0,0c11.2,0,20-10.4,20-22.4
	c0-2.4,0-4-0.8-5.6"/>
<g>
</g>
<g>
</g>
<g>
</g>
<g>
</g>
<g>
</g>
<g>
</g>
<g>
</g>
<g>
</g>
<g>
</g>
<g>
</g>
<g>
</g>
<g>
</g>
<g>
</g>
<g>
</g>
<g>
</g>
</svg>
