<?xml version="1.0" encoding="iso-8859-1"?>
<!-- Generator: Adobe Illustrator 19.0.0, SVG Export Plug-In . SVG Version: 6.00 Build 0)  -->
<svg version="1.1" id="Layer_1" xmlns="http://www.w3.org/2000/svg" xmlns:xlink="http://www.w3.org/1999/xlink" x="0px" y="0px"
	 viewBox="0 0 511.883 511.883" style="enable-background:new 0 0 511.883 511.883;" xml:space="preserve">
<g>
	<path style="fill:#EAC6BB;" d="M238.913,511.883c-76.967,0-139.359-62.393-139.359-139.359S161.946,233.15,238.913,233.15
		c76.982,0,139.375,62.407,139.375,139.374S315.895,511.883,238.913,511.883z"/>
	<path style="fill:#EAC6BB;" d="M294.12,356.012h59.533V56.721c0-16.418-13.357-29.759-29.76-29.759
		c-16.418,0-29.773,13.341-29.773,29.759L294.12,356.012L294.12,356.012z"/>
	<path style="fill:#EAC6BB;" d="M229.274,329.065h59.518V29.759C288.792,13.356,275.436,0,259.034,0
		c-16.419,0-29.76,13.355-29.76,29.759V329.065z"/>
	<path style="fill:#EAC6BB;" d="M164.414,356.012h59.518V56.721c0-16.418-13.356-29.759-29.759-29.759
		c-16.418,0-29.759,13.341-29.759,29.759V356.012z"/>
	<path style="fill:#EAC6BB;" d="M99.554,372.524h59.518V110.631c0-16.418-13.341-29.759-29.759-29.759
		c-16.402,0-29.759,13.341-29.759,29.759V372.524z"/>
</g>
<rect x="31.882" y="106.132" style="fill:#8CC153;" width="448.12" height="234.73"/>
<path style="fill:#A0D468;" d="M95.898,138.14h320.083c0,17.684,14.326,32.009,32.01,32.009v106.694
	c-17.684,0-32.01,14.324-32.01,32.008H95.898c0-17.684-14.325-32.008-32.008-32.008V170.149
	C81.574,170.149,95.898,155.824,95.898,138.14z"/>
<circle style="fill:#8CC153;" cx="255.94" cy="223.492" r="53.35"/>
<path style="fill:#EAC6BB;" d="M436.055,289.45l0.016-0.016c4.857-9.451,5.764-20.229,2.531-30.353
	c-3.25-10.123-10.232-18.387-19.684-23.261c-5.701-2.937-11.826-4.437-18.199-4.437c-14.98,0-28.557,8.279-35.414,21.589
	l-71.185,137.97l73.123,34.867l68.797-136.328L436.055,289.45z"/>
<g>
</g>
<g>
</g>
<g>
</g>
<g>
</g>
<g>
</g>
<g>
</g>
<g>
</g>
<g>
</g>
<g>
</g>
<g>
</g>
<g>
</g>
<g>
</g>
<g>
</g>
<g>
</g>
<g>
</g>
</svg>
