<?xml version="1.0" ?><svg width="64px" height="64px" viewBox="0 0 64 64" id="fill" xmlns="http://www.w3.org/2000/svg"><path d="M58.694,33.633A8.974,8.974,0,0,1,51.688,37H51.67C50,29.044,41.839,23,32,23c-.338,0-.667.029-1,.043V23H15a7.966,7.966,0,0,0,2.247,5.551A16.786,16.786,0,0,0,13.306,34H7V46h6.306a18.678,18.678,0,0,0,11.112,9.727L26,61h4V56.914c.658.056,1.325.086,2,.086s1.342-.03,2-.086V61h4l1.582-5.273C45.815,53.554,50.456,48.784,51.67,43h.018A8.313,8.313,0,0,0,60,34.688V32Z" style="fill:#e5e6eb"/><path d="M39,29v2.986A1.014,1.014,0,0,1,37.986,33H26.014A1.014,1.014,0,0,1,25,31.986V29Z" style="fill:#cfcfd9"/><circle cx="52" cy="11" r="8" style="fill:#027de5"/><path d="M54.139,16.114a3.027,3.027,0,0,0-.2-4.464L51.344,9.491a1.026,1.026,0,0,1-.069-1.513,1.051,1.051,0,0,1,1.45,0l1.568,1.568,1.414-1.414L54.139,6.563A3,3,0,0,0,53,5.859V3.069a7.281,7.281,0,0,0-2,0v2.79a3,3,0,0,0-1.139.7,3.027,3.027,0,0,0,.2,4.464l2.593,2.16A1.025,1.025,0,1,1,51.275,14.7l-1.568-1.568-1.414,1.414,1.568,1.569a3.008,3.008,0,0,0,1.139.7v2.113a7.281,7.281,0,0,0,2,0V16.818A3,3,0,0,0,54.139,16.114Z" style="fill:#fff"/><circle cx="12" cy="11" r="8" style="fill:#027de5"/><path d="M11.344,9.491a1.026,1.026,0,0,1-.069-1.513,1.051,1.051,0,0,1,1.45,0l1.568,1.568,1.414-1.414L14.139,6.563A3,3,0,0,0,13,5.859V3.069a7.281,7.281,0,0,0-2,0v2.79a3,3,0,0,0-1.139.7,3.027,3.027,0,0,0,.2,4.464l2.593,2.16A1.025,1.025,0,1,1,11.275,14.7L9.707,13.132,8.293,14.546l1.568,1.569a3.008,3.008,0,0,0,1.139.7v2.113a7.281,7.281,0,0,0,2,0V16.818a3,3,0,0,0,1.139-.7,3.027,3.027,0,0,0-.2-4.464Z" style="fill:#fff"/><polygon points="24 36 22 36 22 34 20 34 20 36 18 36 18 38 20 38 20 40 22 40 22 38 24 38 24 36" style="fill:#fff"/><path d="M58.694,33.633A8.974,8.974,0,0,1,51.688,37H51.67c-1.254-5.979-6.176-10.877-12.721-12.942A16.06,16.06,0,0,1,46,37c0,9.389-8.954,17-20,17a23.054,23.054,0,0,1-6.968-1.082,20.745,20.745,0,0,0,5.386,2.809L26,61h4V56.914c.658.056,1.325.086,2,.086s1.342-.03,2-.086V61h4l1.582-5.273C45.815,53.554,50.456,48.784,51.67,43h.018A8.313,8.313,0,0,0,60,34.688V32Z" style="fill:#d9dae2"/><polygon points="22 34 20 34 20 36 18 36 18 38 20 38 20 40 22 40 22 38 24 38 24 36 22 36 22 34"/><path d="M37.986,32,26,31.986V30H24v1.986A2.016,2.016,0,0,0,26.014,34H37.986A2.016,2.016,0,0,0,40,31.986V30H38Z"/><path d="M60.331,31.057a1,1,0,0,0-1.112.318l-1.307,1.633a7.925,7.925,0,0,1-5.462,2.955C50.281,27.822,41.834,22,32,22c-.239,0-.475.013-.71.026l-.05,0A1,1,0,0,0,31,22H15a1,1,0,0,0-1,1,8.936,8.936,0,0,0,1.876,5.492A17.668,17.668,0,0,0,12.67,33H7a1,1,0,0,0-1,1V46a1,1,0,0,0,1,1h5.67A19.775,19.775,0,0,0,23.6,56.5l1.438,4.79A1,1,0,0,0,26,62h4a1,1,0,0,0,1-1V57.979c.674.029,1.326.029,2,0V61a1,1,0,0,0,1,1h4a1,1,0,0,0,.958-.713L40.4,56.5C46.56,54.2,51,49.574,52.469,43.968A9.326,9.326,0,0,0,61,34.688V32A1,1,0,0,0,60.331,31.057ZM51.67,42a1,1,0,0,0-.979.8c-1.117,5.323-5.5,9.917-11.438,11.988a1,1,0,0,0-.629.657L37.256,60H35V56.914a1,1,0,0,0-.323-.736.985.985,0,0,0-.761-.26,22.494,22.494,0,0,1-3.832,0,.983.983,0,0,0-.761.26,1,1,0,0,0-.323.736V60H26.744l-1.368-4.56a1,1,0,0,0-.629-.657A17.707,17.707,0,0,1,14.22,45.594,1,1,0,0,0,13.306,45H8V35h5.306a1,1,0,0,0,.914-.594,15.732,15.732,0,0,1,3.708-5.123,1,1,0,0,0,.039-1.427A6.971,6.971,0,0,1,16.071,24H30.71a.888.888,0,0,0,.331.042l.364-.019C31.6,24.012,31.8,24,32,24c9.226,0,17.086,5.554,18.691,13.2a1.019,1.019,0,0,0,1,.8A9.918,9.918,0,0,0,59,34.81,7.324,7.324,0,0,1,51.67,42Z"/><circle cx="32" cy="21" r="8" style="fill:#027de5"/><path d="M34.139,26.114a3.027,3.027,0,0,0-.2-4.464l-2.593-2.159a1.026,1.026,0,0,1-.069-1.513,1.051,1.051,0,0,1,1.45,0l1.568,1.568,1.414-1.414-1.568-1.569a3,3,0,0,0-1.139-.7v-2.79a7.281,7.281,0,0,0-2,0v2.79a3,3,0,0,0-1.139.7,3.027,3.027,0,0,0,.2,4.464l2.593,2.16A1.025,1.025,0,1,1,31.275,24.7l-1.568-1.568-1.414,1.414,1.568,1.569a3.008,3.008,0,0,0,1.139.7v2.113a7.281,7.281,0,0,0,2,0V26.818A3,3,0,0,0,34.139,26.114Z" style="fill:#fff"/></svg>