<?xml version="1.0" encoding="iso-8859-1"?>
<!-- Generator: Adobe Illustrator 19.0.0, SVG Export Plug-In . SVG Version: 6.00 Build 0)  -->
<svg version="1.1" id="Layer_1" xmlns="http://www.w3.org/2000/svg" xmlns:xlink="http://www.w3.org/1999/xlink" x="0px" y="0px"
	 viewBox="0 0 496.8 496.8" style="enable-background:new 0 0 496.8 496.8;" xml:space="preserve">
<path style="fill:#D65C88;" d="M484,129.2H12c-6.4,0-12,5.6-12,12v220c0,6.4,5.6,12,12,12h472.8c6.4,0,12-5.6,12-12v-220
	C496,134.8,490.4,129.2,484,129.2z"/>
<path style="fill:#EF7BA1;" d="M484,123.6H12c-6.4,0-12,5.6-12,12v220c0,6.4,5.6,12,12,12h472.8c6.4,0,12-5.6,12-12v-220
	C496,129.2,490.4,123.6,484,123.6z"/>
<path style="fill:#DD5F8C;" d="M484,367.6c6.4,0,12-5.6,12-12v-220c0-6.4-5.6-12-12-12H12c-6.4,0-12,5.6-12,12"/>
<path style="fill:#BC224A;" d="M471.2,190c-22.4,0-40-17.6-40-40c0-1.6,0-3.2,0.8-4.8H64.8c0,1.6,0.8,3.2,0.8,4.8
	c0,22.4-18.4,40-40,40c-1.6,0-3.2,0-4.8-0.8v112c1.6,0,3.2-0.8,4.8-0.8c22.4,0,40,17.6,40,40c0,1.6,0,3.2-0.8,4.8H432
	c0-1.6-0.8-3.2-0.8-4.8c0-22.4,17.6-40,40-40c1.6,0,3.2,0,4.8,0.8v-112C474.4,189.2,472.8,190,471.2,190z"/>
<path style="fill:#A51642;" d="M431.2,149.2c0-1.6,0-3.2,0.8-4.8H64.8c0,1.6,0.8,3.2,0.8,4.8c0,5.6-0.8,10.4-3.2,15.2L432,341.2l0,0
	c0-22.4,17.6-40,40-40c1.6,0,3.2,0,4.8,0.8V190c-1.6,0-3.2,0.8-4.8,0.8C448.8,190,431.2,171.6,431.2,149.2z"/>
<g>
	<path style="fill:#BC224A;" d="M23.2,172.4c-1.6,0-3.2-1.6-3.2-3.2c0-1.6,1.6-3.2,3.2-3.2c10.4,0,19.2-8.8,19.2-19.2
		c0-1.6,1.6-3.2,3.2-3.2c1.6,0.8,2.4,1.6,2.4,3.2C48,161.2,36.8,172.4,23.2,172.4z"/>
	<path style="fill:#BC224A;" d="M48,343.6c0,1.6-1.6,3.2-3.2,3.2c-1.6,0-3.2-1.6-3.2-3.2c0-10.4-8.8-19.2-19.2-19.2
		c-1.6,0-3.2-1.6-3.2-3.2s1.6-3.2,3.2-3.2C36.8,318.8,48,330,48,343.6z"/>
	<path style="fill:#BC224A;" d="M472.8,318.8c1.6,0,3.2,1.6,3.2,3.2s-1.6,3.2-3.2,3.2c-10.4,0-19.2,8.8-19.2,19.2
		c0,1.6-1.6,3.2-3.2,3.2s-3.2-1.6-3.2-3.2C448,330,459.2,318.8,472.8,318.8z"/>
	<path style="fill:#BC224A;" d="M448,146.8c0-1.6,1.6-3.2,3.2-3.2s3.2,1.6,3.2,3.2c0,10.4,8.8,19.2,19.2,19.2c1.6,0,3.2,1.6,3.2,3.2
		c0,1.6-1.6,3.2-3.2,3.2C459.2,172.4,448,161.2,448,146.8z"/>
</g>
<circle style="fill:#FC3875;" cx="248" cy="245.2" r="80"/>
<g>
	<ellipse style="fill:#A51642;" cx="248" cy="285.2" rx="62.4" ry="43.2"/>
	<path style="fill:#A51642;" d="M298.4,229.2c0,21.6-22.4,30.4-50.4,30.4s-50.4-8.8-50.4-30.4S220,190,248,190
		S298.4,206.8,298.4,229.2z"/>
</g>
<g>
	<circle style="fill:#FFF5F9;" cx="232" cy="222" r="4"/>
	<circle style="fill:#FFF5F9;" cx="264" cy="222" r="4"/>
</g>
<g>
	<circle style="fill:#A51642;" cx="216" cy="202.8" r="12.8"/>
	<circle style="fill:#A51642;" cx="280" cy="202.8" r="12.8"/>
</g>
<path style="fill:#EF7BA1;" d="M248,333.2c-48.8,0-88-39.2-88-88s39.2-88,88-88s88,39.2,88,88S296.8,333.2,248,333.2z M248,173.2
	c-40,0-72,32.8-72,72c0,40,32.8,72,72,72c40,0,72-32.8,72-72S288,173.2,248,173.2z"/>
<path style="fill:#DD5F8C;" d="M323.2,290c8-12.8,12.8-28.8,12.8-44.8c0-48.8-39.2-88-88-88c-37.6,0-69.6,24-82.4,57.6l14.4,6.4
	c9.6-28,36.8-48.8,68-48.8c40,0,72,32.8,72,72c0,13.6-4,27.2-11.2,38.4L323.2,290z"/>
<g>
	<path style="fill:#EF7BA1;" d="M141.6,245.2c0,1.6-0.8,2.4-2.4,2.4H42.4c-1.6,0-2.4-0.8-2.4-2.4l0,0c0-1.6,0.8-2.4,2.4-2.4h96.8
		C140.8,243.6,141.6,244.4,141.6,245.2L141.6,245.2z"/>
	<circle style="fill:#EF7BA1;" cx="29.6" cy="245.2" r="2.4"/>
	<path style="fill:#EF7BA1;" d="M354.4,245.2c0-1.6,0.8-2.4,2.4-2.4h96.8c1.6,0,2.4,0.8,2.4,2.4l0,0c0,1.6-0.8,2.4-2.4,2.4h-96.8
		C355.2,247.6,354.4,246.8,354.4,245.2L354.4,245.2z"/>
	<circle style="fill:#EF7BA1;" cx="466.4" cy="245.2" r="2.4"/>
</g>
<g>
	<circle style="fill:#A51642;" cx="53.6" cy="202.8" r="2.4"/>
	<circle style="fill:#A51642;" cx="66.4" cy="202.8" r="2.4"/>
	<circle style="fill:#A51642;" cx="79.2" cy="202.8" r="2.4"/>
	<circle style="fill:#A51642;" cx="92" cy="202.8" r="2.4"/>
	<circle style="fill:#A51642;" cx="105.6" cy="202.8" r="2.4"/>
	<circle style="fill:#A51642;" cx="118.4" cy="202.8" r="2.4"/>
	<circle style="fill:#A51642;" cx="131.2" cy="202.8" r="2.4"/>
	<circle style="fill:#A51642;" cx="144" cy="202.8" r="2.4"/>
	<circle style="fill:#A51642;" cx="53.6" cy="217.2" r="2.4"/>
	<circle style="fill:#A51642;" cx="66.4" cy="217.2" r="2.4"/>
	<circle style="fill:#A51642;" cx="79.2" cy="217.2" r="2.4"/>
	<circle style="fill:#A51642;" cx="92" cy="217.2" r="2.4"/>
	<circle style="fill:#A51642;" cx="105.6" cy="217.2" r="2.4"/>
	<circle style="fill:#A51642;" cx="118.4" cy="217.2" r="2.4"/>
	<circle style="fill:#A51642;" cx="131.2" cy="217.2" r="2.4"/>
	<circle style="fill:#A51642;" cx="144" cy="217.2" r="2.4"/>
	<circle style="fill:#A51642;" cx="53.6" cy="231.6" r="2.4"/>
	<circle style="fill:#A51642;" cx="66.4" cy="231.6" r="2.4"/>
	<circle style="fill:#A51642;" cx="79.2" cy="231.6" r="2.4"/>
	<circle style="fill:#A51642;" cx="92" cy="231.6" r="2.4"/>
	<circle style="fill:#A51642;" cx="105.6" cy="231.6" r="2.4"/>
	<circle style="fill:#A51642;" cx="118.4" cy="231.6" r="2.4"/>
	<circle style="fill:#A51642;" cx="131.2" cy="231.6" r="2.4"/>
	<circle style="fill:#A51642;" cx="144" cy="231.6" r="2.4"/>
	<circle style="fill:#A51642;" cx="53.6" cy="259.6" r="2.4"/>
	<circle style="fill:#A51642;" cx="66.4" cy="259.6" r="2.4"/>
	<circle style="fill:#A51642;" cx="79.2" cy="259.6" r="2.4"/>
	<circle style="fill:#A51642;" cx="92" cy="259.6" r="2.4"/>
	<circle style="fill:#A51642;" cx="105.6" cy="259.6" r="2.4"/>
	<circle style="fill:#A51642;" cx="118.4" cy="259.6" r="2.4"/>
	<circle style="fill:#A51642;" cx="131.2" cy="259.6" r="2.4"/>
	<circle style="fill:#A51642;" cx="144" cy="259.6" r="2.4"/>
	<circle style="fill:#A51642;" cx="53.6" cy="273.2" r="2.4"/>
	<circle style="fill:#A51642;" cx="66.4" cy="273.2" r="2.4"/>
	<circle style="fill:#A51642;" cx="79.2" cy="273.2" r="2.4"/>
	<circle style="fill:#A51642;" cx="92" cy="273.2" r="2.4"/>
	<circle style="fill:#A51642;" cx="105.6" cy="273.2" r="2.4"/>
	<circle style="fill:#A51642;" cx="118.4" cy="273.2" r="2.4"/>
	<circle style="fill:#A51642;" cx="131.2" cy="273.2" r="2.4"/>
	<circle style="fill:#A51642;" cx="144" cy="273.2" r="2.4"/>
	<circle style="fill:#A51642;" cx="53.6" cy="287.6" r="2.4"/>
	<circle style="fill:#A51642;" cx="66.4" cy="287.6" r="2.4"/>
	<circle style="fill:#A51642;" cx="79.2" cy="287.6" r="2.4"/>
	<circle style="fill:#A51642;" cx="92" cy="287.6" r="2.4"/>
	<circle style="fill:#A51642;" cx="105.6" cy="287.6" r="2.4"/>
	<circle style="fill:#A51642;" cx="118.4" cy="287.6" r="2.4"/>
	<circle style="fill:#A51642;" cx="131.2" cy="287.6" r="2.4"/>
	<circle style="fill:#A51642;" cx="144" cy="287.6" r="2.4"/>
	<circle style="fill:#A51642;" cx="352" cy="202.8" r="2.4"/>
	<circle style="fill:#A51642;" cx="364.8" cy="202.8" r="2.4"/>
	<circle style="fill:#A51642;" cx="377.6" cy="202.8" r="2.4"/>
	<circle style="fill:#A51642;" cx="390.4" cy="202.8" r="2.4"/>
	<circle style="fill:#A51642;" cx="404" cy="202.8" r="2.4"/>
	<circle style="fill:#A51642;" cx="416.8" cy="202.8" r="2.4"/>
	<circle style="fill:#A51642;" cx="429.6" cy="202.8" r="2.4"/>
	<circle style="fill:#A51642;" cx="442.4" cy="202.8" r="2.4"/>
	<circle style="fill:#A51642;" cx="352" cy="217.2" r="2.4"/>
	<circle style="fill:#A51642;" cx="364.8" cy="217.2" r="2.4"/>
	<circle style="fill:#A51642;" cx="377.6" cy="217.2" r="2.4"/>
	<circle style="fill:#A51642;" cx="390.4" cy="217.2" r="2.4"/>
	<circle style="fill:#A51642;" cx="404" cy="217.2" r="2.4"/>
	<circle style="fill:#A51642;" cx="416.8" cy="217.2" r="2.4"/>
	<circle style="fill:#A51642;" cx="429.6" cy="217.2" r="2.4"/>
	<circle style="fill:#A51642;" cx="442.4" cy="217.2" r="2.4"/>
	<circle style="fill:#A51642;" cx="352" cy="231.6" r="2.4"/>
	<circle style="fill:#A51642;" cx="364.8" cy="231.6" r="2.4"/>
	<circle style="fill:#A51642;" cx="377.6" cy="231.6" r="2.4"/>
	<circle style="fill:#A51642;" cx="390.4" cy="231.6" r="2.4"/>
	<circle style="fill:#A51642;" cx="404" cy="231.6" r="2.4"/>
	<circle style="fill:#A51642;" cx="416.8" cy="231.6" r="2.4"/>
	<circle style="fill:#A51642;" cx="429.6" cy="231.6" r="2.4"/>
	<circle style="fill:#A51642;" cx="442.4" cy="231.6" r="2.4"/>
	<circle style="fill:#A51642;" cx="352" cy="259.6" r="2.4"/>
	<circle style="fill:#A51642;" cx="364.8" cy="259.6" r="2.4"/>
	<circle style="fill:#A51642;" cx="377.6" cy="259.6" r="2.4"/>
	<circle style="fill:#A51642;" cx="390.4" cy="259.6" r="2.4"/>
	<circle style="fill:#A51642;" cx="404" cy="259.6" r="2.4"/>
	<circle style="fill:#A51642;" cx="416.8" cy="259.6" r="2.4"/>
	<circle style="fill:#A51642;" cx="429.6" cy="259.6" r="2.4"/>
	<circle style="fill:#A51642;" cx="442.4" cy="259.6" r="2.4"/>
	<circle style="fill:#A51642;" cx="352" cy="273.2" r="2.4"/>
	<circle style="fill:#A51642;" cx="364.8" cy="273.2" r="2.4"/>
	<circle style="fill:#A51642;" cx="377.6" cy="273.2" r="2.4"/>
	<circle style="fill:#A51642;" cx="390.4" cy="273.2" r="2.4"/>
	<circle style="fill:#A51642;" cx="404" cy="273.2" r="2.4"/>
	<circle style="fill:#A51642;" cx="416.8" cy="273.2" r="2.4"/>
	<circle style="fill:#A51642;" cx="429.6" cy="273.2" r="2.4"/>
	<circle style="fill:#A51642;" cx="442.4" cy="273.2" r="2.4"/>
	<circle style="fill:#A51642;" cx="352" cy="287.6" r="2.4"/>
	<circle style="fill:#A51642;" cx="364.8" cy="287.6" r="2.4"/>
	<circle style="fill:#A51642;" cx="377.6" cy="287.6" r="2.4"/>
	<circle style="fill:#A51642;" cx="390.4" cy="287.6" r="2.4"/>
	<circle style="fill:#A51642;" cx="404" cy="287.6" r="2.4"/>
	<circle style="fill:#A51642;" cx="416.8" cy="287.6" r="2.4"/>
	<circle style="fill:#A51642;" cx="429.6" cy="287.6" r="2.4"/>
	<circle style="fill:#A51642;" cx="442.4" cy="287.6" r="2.4"/>
</g>
<g>
</g>
<g>
</g>
<g>
</g>
<g>
</g>
<g>
</g>
<g>
</g>
<g>
</g>
<g>
</g>
<g>
</g>
<g>
</g>
<g>
</g>
<g>
</g>
<g>
</g>
<g>
</g>
<g>
</g>
</svg>
